<svg width="104" height="30" viewBox="0 0 104 30" fill="none" xmlns="http://www.w3.org/2000/svg">
<path d="M11.84 7.56C17.92 7.56 22.8801 12.52 22.8801 18.6C22.8801 24.68 17.92 29.64 11.84 29.64C5.76005 29.64 0.800049 24.68 0.800049 18.6C0.800049 12.52 5.76005 7.56 11.84 7.56ZM4.40005 18.6C4.40005 25.08 7.32005 29.24 11.84 29.24C16.36 29.24 19.2801 25.08 19.2801 18.6C19.2801 12.12 16.36 7.96 11.84 7.96C7.32005 7.96 4.40005 12.12 4.40005 18.6Z" fill="#283618"/>
<path d="M25.6829 22.72C25.6829 17.92 30.6429 15.56 39.4429 15.56H41.7629V13.16C41.7629 9.72 39.4429 7.96 36.3229 7.96C33.2029 7.96 30.0829 9.72 30.0829 15.36H29.6829C29.6829 12.6 28.8829 10.88 28.0829 10.2C30.2429 8.64001 33.4029 7.56 36.3229 7.56C41.8429 7.56 45.2029 10.36 45.2029 14.68V23C45.2029 26.84 45.8429 27.64 48.3229 27.64V28.04C45.5629 28.04 43.2429 28.52 41.7629 29.64V27.64C39.8029 28.96 37.5229 29.64 35.2829 29.64C30.0429 29.64 25.6829 26.88 25.6829 22.72ZM29.2829 23.12C29.2829 26.8 32.0429 29.16 35.7629 29.16C38.1629 29.16 40.2029 28.28 41.7629 27.16V15.96H39.9229C32.5229 15.96 29.2829 18.84 29.2829 23.12Z" fill="#283618"/>
<path d="M51.5407 13.2C51.5407 9.84 54.3807 7.56 59.6207 7.56C63.6607 7.56 66.4607 8.72 68.9007 10.2C68.1007 10.88 67.3007 12.6 67.3007 15.36H66.9007C66.9007 11.64 64.5407 7.96 59.6207 7.96C56.7807 7.96 53.8607 8.72 53.8607 11.24C53.8607 17.28 69.5007 16.4 69.5007 23.2C69.5007 27.32 65.9407 29.64 60.3007 29.64C55.6607 29.64 52.7407 28.32 49.9407 26.6C50.7407 25.92 51.5407 24.2 51.5407 21.44H51.9407C51.9407 25.16 54.1407 29.24 60.3007 29.24C64.8207 29.24 67.1807 27.64 67.1807 25.16C67.1807 19.28 51.5407 20.32 51.5407 13.2Z" fill="#283618"/>
<path d="M78.4725 23.96C78.4725 27.8 79.1126 28.6 81.5926 28.6V29H71.9126V28.6C74.3926 28.6 75.0325 27.8 75.0325 23.96V14.2C75.0325 10.36 74.3926 9.56 71.9126 9.56V9.16C74.6726 9.16 76.9925 8.68 78.4725 7.56V23.96ZM73.9925 2.96C73.9925 1.72 74.8325 0.880005 76.0725 0.880005C77.3125 0.880005 78.1525 1.72 78.1525 2.96C78.1525 4.20001 77.3125 5.04 76.0725 5.04C74.8325 5.04 73.9925 4.20001 73.9925 2.96Z" fill="#283618"/>
<path d="M85.2125 13.2C85.2125 9.84 88.0525 7.56 93.2925 7.56C97.3325 7.56 100.133 8.72 102.573 10.2C101.773 10.88 100.973 12.6 100.973 15.36H100.573C100.573 11.64 98.2125 7.96 93.2925 7.96C90.4525 7.96 87.5325 8.72 87.5325 11.24C87.5325 17.28 103.173 16.4 103.173 23.2C103.173 27.32 99.6125 29.64 93.9725 29.64C89.3325 29.64 86.4125 28.32 83.6125 26.6C84.4125 25.92 85.2125 24.2 85.2125 21.44H85.6125C85.6125 25.16 87.8125 29.24 93.9725 29.24C98.4925 29.24 100.853 27.64 100.853 25.16C100.853 19.28 85.2125 20.32 85.2125 13.2Z" fill="#283618"/>
<path d="M11.84 7.56C17.92 7.56 22.8801 12.52 22.8801 18.6C22.8801 24.68 17.92 29.64 11.84 29.64C5.76005 29.64 0.800049 24.68 0.800049 18.6C0.800049 12.52 5.76005 7.56 11.84 7.56ZM4.40005 18.6C4.40005 25.08 7.32005 29.24 11.84 29.24C16.36 29.24 19.2801 25.08 19.2801 18.6C19.2801 12.12 16.36 7.96 11.84 7.96C7.32005 7.96 4.40005 12.12 4.40005 18.6Z" fill="#283618"/>
<path d="M25.6829 22.72C25.6829 17.92 30.6429 15.56 39.4429 15.56H41.7629V13.16C41.7629 9.72 39.4429 7.96 36.3229 7.96C33.2029 7.96 30.0829 9.72 30.0829 15.36H29.6829C29.6829 12.6 28.8829 10.88 28.0829 10.2C30.2429 8.64001 33.4029 7.56 36.3229 7.56C41.8429 7.56 45.2029 10.36 45.2029 14.68V23C45.2029 26.84 45.8429 27.64 48.3229 27.64V28.04C45.5629 28.04 43.2429 28.52 41.7629 29.64V27.64C39.8029 28.96 37.5229 29.64 35.2829 29.64C30.0429 29.64 25.6829 26.88 25.6829 22.72ZM29.2829 23.12C29.2829 26.8 32.0429 29.16 35.7629 29.16C38.1629 29.16 40.2029 28.28 41.7629 27.16V15.96H39.9229C32.5229 15.96 29.2829 18.84 29.2829 23.12Z" fill="#283618"/>
<path d="M51.5407 13.2C51.5407 9.84 54.3807 7.56 59.6207 7.56C63.6607 7.56 66.4607 8.72 68.9007 10.2C68.1007 10.88 67.3007 12.6 67.3007 15.36H66.9007C66.9007 11.64 64.5407 7.96 59.6207 7.96C56.7807 7.96 53.8607 8.72 53.8607 11.24C53.8607 17.28 69.5007 16.4 69.5007 23.2C69.5007 27.32 65.9407 29.64 60.3007 29.64C55.6607 29.64 52.7407 28.32 49.9407 26.6C50.7407 25.92 51.5407 24.2 51.5407 21.44H51.9407C51.9407 25.16 54.1407 29.24 60.3007 29.24C64.8207 29.24 67.1807 27.64 67.1807 25.16C67.1807 19.28 51.5407 20.32 51.5407 13.2Z" fill="#283618"/>
<path d="M78.4725 23.96C78.4725 27.8 79.1126 28.6 81.5926 28.6V29H71.9126V28.6C74.3926 28.6 75.0325 27.8 75.0325 23.96V14.2C75.0325 10.36 74.3926 9.56 71.9126 9.56V9.16C74.6726 9.16 76.9925 8.68 78.4725 7.56V23.96ZM73.9925 2.96C73.9925 1.72 74.8325 0.880005 76.0725 0.880005C77.3125 0.880005 78.1525 1.72 78.1525 2.96C78.1525 4.20001 77.3125 5.04 76.0725 5.04C74.8325 5.04 73.9925 4.20001 73.9925 2.96Z" fill="#283618"/>
<path d="M85.2125 13.2C85.2125 9.84 88.0525 7.56 93.2925 7.56C97.3325 7.56 100.133 8.72 102.573 10.2C101.773 10.88 100.973 12.6 100.973 15.36H100.573C100.573 11.64 98.2125 7.96 93.2925 7.96C90.4525 7.96 87.5325 8.72 87.5325 11.24C87.5325 17.28 103.173 16.4 103.173 23.2C103.173 27.32 99.6125 29.64 93.9725 29.64C89.3325 29.64 86.4125 28.32 83.6125 26.6C84.4125 25.92 85.2125 24.2 85.2125 21.44H85.6125C85.6125 25.16 87.8125 29.24 93.9725 29.24C98.4925 29.24 100.853 27.64 100.853 25.16C100.853 19.28 85.2125 20.32 85.2125 13.2Z" fill="#283618"/>
<path d="M11.84 7.56C17.92 7.56 22.8801 12.52 22.8801 18.6C22.8801 24.68 17.92 29.64 11.84 29.64C5.76005 29.64 0.800049 24.68 0.800049 18.6C0.800049 12.52 5.76005 7.56 11.84 7.56ZM4.40005 18.6C4.40005 25.08 7.32005 29.24 11.84 29.24C16.36 29.24 19.2801 25.08 19.2801 18.6C19.2801 12.12 16.36 7.96 11.84 7.96C7.32005 7.96 4.40005 12.12 4.40005 18.6Z" fill="#283618"/>
<path d="M25.6829 22.72C25.6829 17.92 30.6429 15.56 39.4429 15.56H41.7629V13.16C41.7629 9.72 39.4429 7.96 36.3229 7.96C33.2029 7.96 30.0829 9.72 30.0829 15.36H29.6829C29.6829 12.6 28.8829 10.88 28.0829 10.2C30.2429 8.64001 33.4029 7.56 36.3229 7.56C41.8429 7.56 45.2029 10.36 45.2029 14.68V23C45.2029 26.84 45.8429 27.64 48.3229 27.64V28.04C45.5629 28.04 43.2429 28.52 41.7629 29.64V27.64C39.8029 28.96 37.5229 29.64 35.2829 29.64C30.0429 29.64 25.6829 26.88 25.6829 22.72ZM29.2829 23.12C29.2829 26.8 32.0429 29.16 35.7629 29.16C38.1629 29.16 40.2029 28.28 41.7629 27.16V15.96H39.9229C32.5229 15.96 29.2829 18.84 29.2829 23.12Z" fill="#283618"/>
<path d="M51.5407 13.2C51.5407 9.84 54.3807 7.56 59.6207 7.56C63.6607 7.56 66.4607 8.72 68.9007 10.2C68.1007 10.88 67.3007 12.6 67.3007 15.36H66.9007C66.9007 11.64 64.5407 7.96 59.6207 7.96C56.7807 7.96 53.8607 8.72 53.8607 11.24C53.8607 17.28 69.5007 16.4 69.5007 23.2C69.5007 27.32 65.9407 29.64 60.3007 29.64C55.6607 29.64 52.7407 28.32 49.9407 26.6C50.7407 25.92 51.5407 24.2 51.5407 21.44H51.9407C51.9407 25.16 54.1407 29.24 60.3007 29.24C64.8207 29.24 67.1807 27.64 67.1807 25.16C67.1807 19.28 51.5407 20.32 51.5407 13.2Z" fill="#283618"/>
<path d="M78.4725 23.96C78.4725 27.8 79.1126 28.6 81.5926 28.6V29H71.9126V28.6C74.3926 28.6 75.0325 27.8 75.0325 23.96V14.2C75.0325 10.36 74.3926 9.56 71.9126 9.56V9.16C74.6726 9.16 76.9925 8.68 78.4725 7.56V23.96ZM73.9925 2.96C73.9925 1.72 74.8325 0.880005 76.0725 0.880005C77.3125 0.880005 78.1525 1.72 78.1525 2.96C78.1525 4.20001 77.3125 5.04 76.0725 5.04C74.8325 5.04 73.9925 4.20001 73.9925 2.96Z" fill="#283618"/>
<path d="M85.2125 13.2C85.2125 9.84 88.0525 7.56 93.2925 7.56C97.3325 7.56 100.133 8.72 102.573 10.2C101.773 10.88 100.973 12.6 100.973 15.36H100.573C100.573 11.64 98.2125 7.96 93.2925 7.96C90.4525 7.96 87.5325 8.72 87.5325 11.24C87.5325 17.28 103.173 16.4 103.173 23.2C103.173 27.32 99.6125 29.64 93.9725 29.64C89.3325 29.64 86.4125 28.32 83.6125 26.6C84.4125 25.92 85.2125 24.2 85.2125 21.44H85.6125C85.6125 25.16 87.8125 29.24 93.9725 29.24C98.4925 29.24 100.853 27.64 100.853 25.16C100.853 19.28 85.2125 20.32 85.2125 13.2Z" fill="#283618"/>
</svg>
