<svg width="1080" height="441" viewBox="0 0 1080 441" fill="none" xmlns="http://www.w3.org/2000/svg">
<g clip-path="url(#clip0_16_5)">
<rect width="1080" height="441" fill="#AA6E43"/>
<path fill-rule="evenodd" clip-rule="evenodd" d="M1003.13 -24.653C1113.71 -31.7008 1223.86 -160.38 1314.58 -96.9049C1403.14 -34.9363 1360.57 106.721 1343.09 213.216C1328.75 300.555 1296.95 386.906 1226.37 440.526C1162.22 489.263 1076.53 466.815 996.484 476.542C892.278 489.204 752.28 592.804 694.899 505.105C633.436 411.168 811.193 318.133 819.65 206.277C826.931 109.98 677.506 15.5456 737.634 -60.1336C795.288 -132.699 910.497 -18.7492 1003.13 -24.653Z" fill="#D49365"/>
<path fill-rule="evenodd" clip-rule="evenodd" d="M235.382 50.1707C312.145 130.075 481.528 131.136 491.609 241.396C501.452 349.039 365.779 407.966 273.162 463.362C197.205 508.793 110.723 540.244 24.2126 520.954C-54.4207 503.42 -92.5911 423.484 -151.691 368.628C-228.628 297.216 -398.124 257.169 -368.186 156.733C-336.118 49.1529 -150.317 124.858 -59.4285 59.1113C18.8175 2.51006 -5.51535 -172.571 91.0982 -175.501C183.736 -178.311 171.077 -16.7645 235.382 50.1707Z" fill="#D49365"/>
<mask id="path-4-inside-1_16_5" fill="white">
<path d="M481 167.233C481 191.829 466.334 214.554 432.734 229.952C399.108 245.361 346.521 253.433 276.99 248.607C237.764 248.607 207.682 243.677 184.962 233.811C150.863 219.005 134.119 194.204 134.119 167.233C130.258 112.877 220.724 82 318.823 82C350.863 82 378.75 85.1227 402.485 92.2924C451.419 107.074 481 136.97 481 167.233Z"/>
</mask>
<path d="M276.99 248.607L277.129 246.611C277.082 246.608 277.036 246.607 276.99 246.607V248.607ZM134.119 167.233H136.119C136.119 167.186 136.118 167.139 136.114 167.091L134.119 167.233ZM402.485 92.2924L403.063 90.3779L402.485 92.2924ZM184.962 233.811L184.165 235.646L184.962 233.811ZM432.734 229.952L431.9 228.134L432.734 229.952ZM136.114 167.091C134.281 141.283 154.79 120.517 189.014 106.076C223.089 91.6975 269.945 84 318.823 84V80C269.603 80 222.176 87.741 187.459 102.39C152.89 116.977 130.096 138.827 132.124 167.375L136.114 167.091ZM318.823 84C350.747 84 378.422 87.113 401.906 94.207L403.063 90.3779C379.077 83.1324 350.98 80 318.823 80V84ZM401.906 94.207C450.566 108.906 479 138.329 479 167.233H483C483 135.611 452.273 105.243 403.063 90.3779L401.906 94.207ZM276.99 246.607C237.903 246.607 208.128 241.69 185.759 231.977L184.165 235.646C207.237 245.664 237.624 250.607 276.99 250.607V246.607ZM185.759 231.977C152.219 217.414 136.119 193.236 136.119 167.233H132.119C132.119 195.172 149.507 220.597 184.165 235.646L185.759 231.977ZM479 167.233C479 190.853 464.984 212.972 431.9 228.134L433.567 231.77C467.684 216.135 483 192.804 483 167.233H479ZM431.9 228.134C398.696 243.35 346.485 251.426 277.129 246.611L276.852 250.602C346.557 255.44 399.519 247.373 433.567 231.77L431.9 228.134Z" fill="#283618" mask="url(#path-4-inside-1_16_5)"/>
<mask id="path-6-outside-2_16_5" maskUnits="userSpaceOnUse" x="596" y="202" width="352" height="172" fill="black">
<rect fill="white" x="596" y="202" width="352" height="172"/>
<path d="M946 289.233C946 313.829 931.334 336.554 897.734 351.952C864.108 367.361 811.521 375.433 741.99 370.607C702.764 370.607 672.682 365.677 649.962 355.811C615.863 341.005 599.119 316.204 599.119 289.233C595.258 234.877 685.724 204 783.823 204C815.863 204 843.75 207.123 867.485 214.292C916.419 229.074 946 258.97 946 289.233Z"/>
</mask>
<path d="M741.99 370.607L742.129 368.611C742.082 368.608 742.036 368.607 741.99 368.607V370.607ZM599.119 289.233H601.119C601.119 289.186 601.118 289.139 601.114 289.091L599.119 289.233ZM867.485 214.292L868.063 212.378L867.485 214.292ZM649.962 355.811L649.165 357.646L649.962 355.811ZM897.734 351.952L896.9 350.134L897.734 351.952ZM601.114 289.091C599.281 263.283 619.79 242.517 654.014 228.076C688.089 213.698 734.945 206 783.823 206V202C734.603 202 687.176 209.741 652.459 224.39C617.89 238.977 595.096 260.827 597.124 289.375L601.114 289.091ZM783.823 206C815.747 206 843.422 209.113 866.906 216.207L868.063 212.378C844.077 205.132 815.98 202 783.823 202V206ZM866.906 216.207C915.566 230.906 944 260.329 944 289.233H948C948 257.611 917.273 227.243 868.063 212.378L866.906 216.207ZM741.99 368.607C702.903 368.607 673.128 363.69 650.759 353.977L649.165 357.646C672.237 367.664 702.624 372.607 741.99 372.607V368.607ZM650.759 353.977C617.219 339.414 601.119 315.236 601.119 289.233H597.119C597.119 317.172 614.507 342.597 649.165 357.646L650.759 353.977ZM944 289.233C944 312.853 929.984 334.972 896.9 350.134L898.567 353.77C932.684 338.135 948 314.804 948 289.233H944ZM896.9 350.134C863.696 365.35 811.485 373.426 742.129 368.611L741.852 372.602C811.557 377.44 864.519 369.373 898.567 353.77L896.9 350.134Z" fill="#283618" mask="url(#path-6-outside-2_16_5)"/>
<path d="M201.769 136.774H199.537L201.427 132.49H202.867L201.769 136.774ZM205.009 136.774H202.777L204.667 132.49H206.107L205.009 136.774ZM207.347 139.996C207.347 139 207.551 138.118 207.959 137.35C208.379 136.582 208.943 135.988 209.651 135.568C210.371 135.136 211.163 134.92 212.027 134.92C212.807 134.92 213.485 135.076 214.061 135.388C214.649 135.688 215.117 136.066 215.465 136.522V135.082H217.535V145H215.465V143.524C215.117 143.992 214.643 144.382 214.043 144.694C213.443 145.006 212.759 145.162 211.991 145.162C211.139 145.162 210.359 144.946 209.651 144.514C208.943 144.07 208.379 143.458 207.959 142.678C207.551 141.886 207.347 140.992 207.347 139.996ZM215.465 140.032C215.465 139.348 215.321 138.754 215.033 138.25C214.757 137.746 214.391 137.362 213.935 137.098C213.479 136.834 212.987 136.702 212.459 136.702C211.931 136.702 211.439 136.834 210.983 137.098C210.527 137.35 210.155 137.728 209.867 138.232C209.591 138.724 209.453 139.312 209.453 139.996C209.453 140.68 209.591 141.28 209.867 141.796C210.155 142.312 210.527 142.708 210.983 142.984C211.451 143.248 211.943 143.38 212.459 143.38C212.987 143.38 213.479 143.248 213.935 142.984C214.391 142.72 214.757 142.336 215.033 141.832C215.321 141.316 215.465 140.716 215.465 140.032ZM228.902 134.92C229.67 134.92 230.348 135.076 230.936 135.388C231.536 135.688 232.004 136.066 232.34 136.522V135.082H234.41V145.162C234.41 146.074 234.218 146.884 233.834 147.592C233.45 148.312 232.892 148.876 232.16 149.284C231.44 149.692 230.576 149.896 229.568 149.896C228.224 149.896 227.108 149.578 226.22 148.942C225.332 148.318 224.828 147.466 224.708 146.386H226.742C226.898 146.902 227.228 147.316 227.732 147.628C228.248 147.952 228.86 148.114 229.568 148.114C230.396 148.114 231.062 147.862 231.566 147.358C232.082 146.854 232.34 146.122 232.34 145.162V143.506C231.992 143.974 231.518 144.37 230.918 144.694C230.33 145.006 229.658 145.162 228.902 145.162C228.038 145.162 227.246 144.946 226.526 144.514C225.818 144.07 225.254 143.458 224.834 142.678C224.426 141.886 224.222 140.992 224.222 139.996C224.222 139 224.426 138.118 224.834 137.35C225.254 136.582 225.818 135.988 226.526 135.568C227.246 135.136 228.038 134.92 228.902 134.92ZM232.34 140.032C232.34 139.348 232.196 138.754 231.908 138.25C231.632 137.746 231.266 137.362 230.81 137.098C230.354 136.834 229.862 136.702 229.334 136.702C228.806 136.702 228.314 136.834 227.858 137.098C227.402 137.35 227.03 137.728 226.742 138.232C226.466 138.724 226.328 139.312 226.328 139.996C226.328 140.68 226.466 141.28 226.742 141.796C227.03 142.312 227.402 142.708 227.858 142.984C228.326 143.248 228.818 143.38 229.334 143.38C229.862 143.38 230.354 143.248 230.81 142.984C231.266 142.72 231.632 142.336 231.908 141.832C232.196 141.316 232.34 140.716 232.34 140.032ZM246.087 135.082V145H244.035V143.83C243.711 144.238 243.285 144.562 242.757 144.802C242.241 145.03 241.689 145.144 241.101 145.144C240.321 145.144 239.619 144.982 238.995 144.658C238.383 144.334 237.897 143.854 237.537 143.218C237.189 142.582 237.015 141.814 237.015 140.914V135.082H239.049V140.608C239.049 141.496 239.271 142.18 239.715 142.66C240.159 143.128 240.765 143.362 241.533 143.362C242.301 143.362 242.907 143.128 243.351 142.66C243.807 142.18 244.035 141.496 244.035 140.608V135.082H246.087ZM249.838 133.768C249.466 133.768 249.154 133.642 248.902 133.39C248.65 133.138 248.524 132.826 248.524 132.454C248.524 132.082 248.65 131.77 248.902 131.518C249.154 131.266 249.466 131.14 249.838 131.14C250.198 131.14 250.504 131.266 250.756 131.518C251.008 131.77 251.134 132.082 251.134 132.454C251.134 132.826 251.008 133.138 250.756 133.39C250.504 133.642 250.198 133.768 249.838 133.768ZM250.846 135.082V145H248.794V135.082H250.846ZM255.592 131.68V145H253.54V131.68H255.592ZM260.681 136.756V142.246C260.681 142.618 260.765 142.888 260.933 143.056C261.113 143.212 261.413 143.29 261.833 143.29H263.093V145H261.473C260.549 145 259.841 144.784 259.349 144.352C258.857 143.92 258.611 143.218 258.611 142.246V136.756H257.441V135.082H258.611V132.616H260.681V135.082H263.093V136.756H260.681ZM272.598 137.62V139.348H265.2V137.62H272.598ZM279.671 136.756H277.835V145H275.765V136.756H274.595V135.082H275.765V134.38C275.765 133.24 276.065 132.412 276.665 131.896C277.277 131.368 278.231 131.104 279.527 131.104V132.814C278.903 132.814 278.465 132.934 278.213 133.174C277.961 133.402 277.835 133.804 277.835 134.38V135.082H279.671V136.756ZM283.542 136.522C283.842 136.018 284.238 135.628 284.73 135.352C285.234 135.064 285.828 134.92 286.512 134.92V137.044H285.99C285.186 137.044 284.574 137.248 284.154 137.656C283.746 138.064 283.542 138.772 283.542 139.78V145H281.49V135.082H283.542V136.522ZM297.488 139.798C297.488 140.17 297.464 140.506 297.416 140.806H289.838C289.898 141.598 290.192 142.234 290.72 142.714C291.248 143.194 291.896 143.434 292.664 143.434C293.768 143.434 294.548 142.972 295.004 142.048H297.218C296.918 142.96 296.372 143.71 295.58 144.298C294.8 144.874 293.828 145.162 292.664 145.162C291.716 145.162 290.864 144.952 290.108 144.532C289.364 144.1 288.776 143.5 288.344 142.732C287.924 141.952 287.714 141.052 287.714 140.032C287.714 139.012 287.918 138.118 288.326 137.35C288.746 136.57 289.328 135.97 290.072 135.55C290.828 135.13 291.692 134.92 292.664 134.92C293.6 134.92 294.434 135.124 295.166 135.532C295.898 135.94 296.468 136.516 296.876 137.26C297.284 137.992 297.488 138.838 297.488 139.798ZM295.346 139.15C295.334 138.394 295.064 137.788 294.536 137.332C294.008 136.876 293.354 136.648 292.574 136.648C291.866 136.648 291.26 136.876 290.756 137.332C290.252 137.776 289.952 138.382 289.856 139.15H295.346ZM308.597 139.798C308.597 140.17 308.573 140.506 308.525 140.806H300.947C301.007 141.598 301.301 142.234 301.829 142.714C302.357 143.194 303.005 143.434 303.773 143.434C304.877 143.434 305.657 142.972 306.113 142.048H308.327C308.027 142.96 307.481 143.71 306.689 144.298C305.909 144.874 304.937 145.162 303.773 145.162C302.825 145.162 301.973 144.952 301.217 144.532C300.473 144.1 299.885 143.5 299.453 142.732C299.033 141.952 298.823 141.052 298.823 140.032C298.823 139.012 299.027 138.118 299.435 137.35C299.855 136.57 300.437 135.97 301.181 135.55C301.937 135.13 302.801 134.92 303.773 134.92C304.709 134.92 305.543 135.124 306.275 135.532C307.007 135.94 307.577 136.516 307.985 137.26C308.393 137.992 308.597 138.838 308.597 139.798ZM306.455 139.15C306.443 138.394 306.173 137.788 305.645 137.332C305.117 136.876 304.463 136.648 303.683 136.648C302.975 136.648 302.369 136.876 301.865 137.332C301.361 137.776 301.061 138.382 300.965 139.15H306.455ZM316.336 133.768C315.964 133.768 315.652 133.642 315.4 133.39C315.148 133.138 315.022 132.826 315.022 132.454C315.022 132.082 315.148 131.77 315.4 131.518C315.652 131.266 315.964 131.14 316.336 131.14C316.696 131.14 317.002 131.266 317.254 131.518C317.506 131.77 317.632 132.082 317.632 132.454C317.632 132.826 317.506 133.138 317.254 133.39C317.002 133.642 316.696 133.768 316.336 133.768ZM317.344 135.082V145H315.292V135.082H317.344ZM325.042 134.92C325.822 134.92 326.518 135.082 327.13 135.406C327.754 135.73 328.24 136.21 328.588 136.846C328.936 137.482 329.11 138.25 329.11 139.15V145H327.076V139.456C327.076 138.568 326.854 137.89 326.41 137.422C325.966 136.942 325.36 136.702 324.592 136.702C323.824 136.702 323.212 136.942 322.756 137.422C322.312 137.89 322.09 138.568 322.09 139.456V145H320.038V135.082H322.09V136.216C322.426 135.808 322.852 135.49 323.368 135.262C323.896 135.034 324.454 134.92 325.042 134.92ZM331.044 139.996C331.044 139 331.248 138.118 331.656 137.35C332.076 136.582 332.64 135.988 333.348 135.568C334.068 135.136 334.866 134.92 335.742 134.92C336.39 134.92 337.026 135.064 337.65 135.352C338.286 135.628 338.79 136 339.162 136.468V131.68H341.232V145H339.162V143.506C338.826 143.986 338.358 144.382 337.758 144.694C337.17 145.006 336.492 145.162 335.724 145.162C334.86 145.162 334.068 144.946 333.348 144.514C332.64 144.07 332.076 143.458 331.656 142.678C331.248 141.886 331.044 140.992 331.044 139.996ZM339.162 140.032C339.162 139.348 339.018 138.754 338.73 138.25C338.454 137.746 338.088 137.362 337.632 137.098C337.176 136.834 336.684 136.702 336.156 136.702C335.628 136.702 335.136 136.834 334.68 137.098C334.224 137.35 333.852 137.728 333.564 138.232C333.288 138.724 333.15 139.312 333.15 139.996C333.15 140.68 333.288 141.28 333.564 141.796C333.852 142.312 334.224 142.708 334.68 142.984C335.148 143.248 335.64 143.38 336.156 143.38C336.684 143.38 337.176 143.248 337.632 142.984C338.088 142.72 338.454 142.336 338.73 141.832C339.018 141.316 339.162 140.716 339.162 140.032ZM352.909 135.082V145H350.857V143.83C350.533 144.238 350.107 144.562 349.579 144.802C349.063 145.03 348.511 145.144 347.923 145.144C347.143 145.144 346.441 144.982 345.817 144.658C345.205 144.334 344.719 143.854 344.359 143.218C344.011 142.582 343.837 141.814 343.837 140.914V135.082H345.871V140.608C345.871 141.496 346.093 142.18 346.537 142.66C346.981 143.128 347.587 143.362 348.355 143.362C349.123 143.362 349.729 143.128 350.173 142.66C350.629 142.18 350.857 141.496 350.857 140.608V135.082H352.909ZM357.669 131.68V145H355.617V131.68H357.669ZM364.359 134.92C365.127 134.92 365.805 135.076 366.393 135.388C366.993 135.688 367.461 136.066 367.797 136.522V135.082H369.867V145.162C369.867 146.074 369.675 146.884 369.291 147.592C368.907 148.312 368.349 148.876 367.617 149.284C366.897 149.692 366.033 149.896 365.025 149.896C363.681 149.896 362.565 149.578 361.677 148.942C360.789 148.318 360.285 147.466 360.165 146.386H362.199C362.355 146.902 362.685 147.316 363.189 147.628C363.705 147.952 364.317 148.114 365.025 148.114C365.853 148.114 366.519 147.862 367.023 147.358C367.539 146.854 367.797 146.122 367.797 145.162V143.506C367.449 143.974 366.975 144.37 366.375 144.694C365.787 145.006 365.115 145.162 364.359 145.162C363.495 145.162 362.703 144.946 361.983 144.514C361.275 144.07 360.711 143.458 360.291 142.678C359.883 141.886 359.679 140.992 359.679 139.996C359.679 139 359.883 138.118 360.291 137.35C360.711 136.582 361.275 135.988 361.983 135.568C362.703 135.136 363.495 134.92 364.359 134.92ZM367.797 140.032C367.797 139.348 367.653 138.754 367.365 138.25C367.089 137.746 366.723 137.362 366.267 137.098C365.811 136.834 365.319 136.702 364.791 136.702C364.263 136.702 363.771 136.834 363.315 137.098C362.859 137.35 362.487 137.728 362.199 138.232C361.923 138.724 361.785 139.312 361.785 139.996C361.785 140.68 361.923 141.28 362.199 141.796C362.487 142.312 362.859 142.708 363.315 142.984C363.783 143.248 364.275 143.38 364.791 143.38C365.319 143.38 365.811 143.248 366.267 142.984C366.723 142.72 367.089 142.336 367.365 141.832C367.653 141.316 367.797 140.716 367.797 140.032ZM381.652 139.798C381.652 140.17 381.628 140.506 381.58 140.806H374.002C374.062 141.598 374.356 142.234 374.884 142.714C375.412 143.194 376.06 143.434 376.828 143.434C377.932 143.434 378.712 142.972 379.168 142.048H381.382C381.082 142.96 380.536 143.71 379.744 144.298C378.964 144.874 377.992 145.162 376.828 145.162C375.88 145.162 375.028 144.952 374.272 144.532C373.528 144.1 372.94 143.5 372.508 142.732C372.088 141.952 371.878 141.052 371.878 140.032C371.878 139.012 372.082 138.118 372.49 137.35C372.91 136.57 373.492 135.97 374.236 135.55C374.992 135.13 375.856 134.92 376.828 134.92C377.764 134.92 378.598 135.124 379.33 135.532C380.062 135.94 380.632 136.516 381.04 137.26C381.448 137.992 381.652 138.838 381.652 139.798ZM379.51 139.15C379.498 138.394 379.228 137.788 378.7 137.332C378.172 136.876 377.518 136.648 376.738 136.648C376.03 136.648 375.424 136.876 374.92 137.332C374.416 137.776 374.116 138.382 374.02 139.15H379.51ZM388.675 134.92C389.455 134.92 390.151 135.082 390.763 135.406C391.387 135.73 391.873 136.21 392.221 136.846C392.569 137.482 392.743 138.25 392.743 139.15V145H390.709V139.456C390.709 138.568 390.487 137.89 390.043 137.422C389.599 136.942 388.993 136.702 388.225 136.702C387.457 136.702 386.845 136.942 386.389 137.422C385.945 137.89 385.723 138.568 385.723 139.456V145H383.671V135.082H385.723V136.216C386.059 135.808 386.485 135.49 387.001 135.262C387.529 135.034 388.087 134.92 388.675 134.92ZM394.677 140.032C394.677 139.012 394.881 138.118 395.289 137.35C395.709 136.57 396.285 135.97 397.017 135.55C397.749 135.13 398.589 134.92 399.537 134.92C400.737 134.92 401.727 135.208 402.507 135.784C403.299 136.348 403.833 137.158 404.109 138.214H401.895C401.715 137.722 401.427 137.338 401.031 137.062C400.635 136.786 400.137 136.648 399.537 136.648C398.697 136.648 398.025 136.948 397.521 137.548C397.029 138.136 396.783 138.964 396.783 140.032C396.783 141.1 397.029 141.934 397.521 142.534C398.025 143.134 398.697 143.434 399.537 143.434C400.725 143.434 401.511 142.912 401.895 141.868H404.109C403.821 142.876 403.281 143.68 402.489 144.28C401.697 144.868 400.713 145.162 399.537 145.162C398.589 145.162 397.749 144.952 397.017 144.532C396.285 144.1 395.709 143.5 395.289 142.732C394.881 141.952 394.677 141.052 394.677 140.032ZM415.244 139.798C415.244 140.17 415.22 140.506 415.172 140.806H407.594C407.654 141.598 407.948 142.234 408.476 142.714C409.004 143.194 409.652 143.434 410.42 143.434C411.524 143.434 412.304 142.972 412.76 142.048H414.974C414.674 142.96 414.128 143.71 413.336 144.298C412.556 144.874 411.584 145.162 410.42 145.162C409.472 145.162 408.62 144.952 407.864 144.532C407.12 144.1 406.532 143.5 406.1 142.732C405.68 141.952 405.47 141.052 405.47 140.032C405.47 139.012 405.674 138.118 406.082 137.35C406.502 136.57 407.084 135.97 407.828 135.55C408.584 135.13 409.448 134.92 410.42 134.92C411.356 134.92 412.19 135.124 412.922 135.532C413.654 135.94 414.224 136.516 414.632 137.26C415.04 137.992 415.244 138.838 415.244 139.798ZM413.102 139.15C413.09 138.394 412.82 137.788 412.292 137.332C411.764 136.876 411.11 136.648 410.33 136.648C409.622 136.648 409.016 136.876 408.512 137.332C408.008 137.776 407.708 138.382 407.612 139.15H413.102ZM225.712 160.768C225.34 160.768 225.028 160.642 224.776 160.39C224.524 160.138 224.398 159.826 224.398 159.454C224.398 159.082 224.524 158.77 224.776 158.518C225.028 158.266 225.34 158.14 225.712 158.14C226.072 158.14 226.378 158.266 226.63 158.518C226.882 158.77 227.008 159.082 227.008 159.454C227.008 159.826 226.882 160.138 226.63 160.39C226.378 160.642 226.072 160.768 225.712 160.768ZM226.72 162.082V172H224.668V162.082H226.72ZM234.418 161.92C235.198 161.92 235.894 162.082 236.506 162.406C237.13 162.73 237.616 163.21 237.964 163.846C238.312 164.482 238.486 165.25 238.486 166.15V172H236.452V166.456C236.452 165.568 236.23 164.89 235.786 164.422C235.342 163.942 234.736 163.702 233.968 163.702C233.2 163.702 232.588 163.942 232.132 164.422C231.688 164.89 231.466 165.568 231.466 166.456V172H229.414V162.082H231.466V163.216C231.802 162.808 232.228 162.49 232.744 162.262C233.272 162.034 233.83 161.92 234.418 161.92ZM249.38 172.162C248.6 172.162 247.898 172.024 247.274 171.748C246.662 171.46 246.176 171.076 245.816 170.596C245.456 170.104 245.264 169.558 245.24 168.958H247.364C247.4 169.378 247.598 169.732 247.958 170.02C248.33 170.296 248.792 170.434 249.344 170.434C249.92 170.434 250.364 170.326 250.676 170.11C251 169.882 251.162 169.594 251.162 169.246C251.162 168.874 250.982 168.598 250.622 168.418C250.274 168.238 249.716 168.04 248.948 167.824C248.204 167.62 247.598 167.422 247.13 167.23C246.662 167.038 246.254 166.744 245.906 166.348C245.57 165.952 245.402 165.43 245.402 164.782C245.402 164.254 245.558 163.774 245.87 163.342C246.182 162.898 246.626 162.55 247.202 162.298C247.79 162.046 248.462 161.92 249.218 161.92C250.346 161.92 251.252 162.208 251.936 162.784C252.632 163.348 253.004 164.122 253.052 165.106H251C250.964 164.662 250.784 164.308 250.46 164.044C250.136 163.78 249.698 163.648 249.146 163.648C248.606 163.648 248.192 163.75 247.904 163.954C247.616 164.158 247.472 164.428 247.472 164.764C247.472 165.028 247.568 165.25 247.76 165.43C247.952 165.61 248.186 165.754 248.462 165.862C248.738 165.958 249.146 166.084 249.686 166.24C250.406 166.432 250.994 166.63 251.45 166.834C251.918 167.026 252.32 167.314 252.656 167.698C252.992 168.082 253.166 168.592 253.178 169.228C253.178 169.792 253.022 170.296 252.71 170.74C252.398 171.184 251.954 171.532 251.378 171.784C250.814 172.036 250.148 172.162 249.38 172.162ZM264.485 166.798C264.485 167.17 264.461 167.506 264.413 167.806H256.835C256.895 168.598 257.189 169.234 257.717 169.714C258.245 170.194 258.893 170.434 259.661 170.434C260.765 170.434 261.545 169.972 262.001 169.048H264.215C263.915 169.96 263.369 170.71 262.577 171.298C261.797 171.874 260.825 172.162 259.661 172.162C258.713 172.162 257.861 171.952 257.105 171.532C256.361 171.1 255.773 170.5 255.341 169.732C254.921 168.952 254.711 168.052 254.711 167.032C254.711 166.012 254.915 165.118 255.323 164.35C255.743 163.57 256.325 162.97 257.069 162.55C257.825 162.13 258.689 161.92 259.661 161.92C260.597 161.92 261.431 162.124 262.163 162.532C262.895 162.94 263.465 163.516 263.873 164.26C264.281 164.992 264.485 165.838 264.485 166.798ZM262.343 166.15C262.331 165.394 262.061 164.788 261.533 164.332C261.005 163.876 260.351 163.648 259.571 163.648C258.863 163.648 258.257 163.876 257.753 164.332C257.249 164.776 256.949 165.382 256.853 166.15H262.343ZM268.556 158.68V172H266.504V158.68H268.556ZM275.408 163.756H273.572V172H271.502V163.756H270.332V162.082H271.502V161.38C271.502 160.24 271.802 159.412 272.402 158.896C273.014 158.368 273.968 158.104 275.264 158.104V159.814C274.64 159.814 274.202 159.934 273.95 160.174C273.698 160.402 273.572 160.804 273.572 161.38V162.082H275.408V163.756ZM284.841 164.62V166.348H277.443V164.62H284.841ZM287.072 167.032C287.072 166.012 287.276 165.118 287.684 164.35C288.104 163.57 288.68 162.97 289.412 162.55C290.144 162.13 290.984 161.92 291.932 161.92C293.132 161.92 294.122 162.208 294.902 162.784C295.694 163.348 296.228 164.158 296.504 165.214H294.29C294.11 164.722 293.822 164.338 293.426 164.062C293.03 163.786 292.532 163.648 291.932 163.648C291.092 163.648 290.42 163.948 289.916 164.548C289.424 165.136 289.178 165.964 289.178 167.032C289.178 168.1 289.424 168.934 289.916 169.534C290.42 170.134 291.092 170.434 291.932 170.434C293.12 170.434 293.906 169.912 294.29 168.868H296.504C296.216 169.876 295.676 170.68 294.884 171.28C294.092 171.868 293.108 172.162 291.932 172.162C290.984 172.162 290.144 171.952 289.412 171.532C288.68 171.1 288.104 170.5 287.684 169.732C287.276 168.952 287.072 168.052 287.072 167.032ZM297.865 166.996C297.865 166 298.069 165.118 298.477 164.35C298.897 163.582 299.461 162.988 300.169 162.568C300.889 162.136 301.681 161.92 302.545 161.92C303.325 161.92 304.003 162.076 304.579 162.388C305.167 162.688 305.635 163.066 305.983 163.522V162.082H308.053V172H305.983V170.524C305.635 170.992 305.161 171.382 304.561 171.694C303.961 172.006 303.277 172.162 302.509 172.162C301.657 172.162 300.877 171.946 300.169 171.514C299.461 171.07 298.897 170.458 298.477 169.678C298.069 168.886 297.865 167.992 297.865 166.996ZM305.983 167.032C305.983 166.348 305.839 165.754 305.551 165.25C305.275 164.746 304.909 164.362 304.453 164.098C303.997 163.834 303.505 163.702 302.977 163.702C302.449 163.702 301.957 163.834 301.501 164.098C301.045 164.35 300.673 164.728 300.385 165.232C300.109 165.724 299.971 166.312 299.971 166.996C299.971 167.68 300.109 168.28 300.385 168.796C300.673 169.312 301.045 169.708 301.501 169.984C301.969 170.248 302.461 170.38 302.977 170.38C303.505 170.38 303.997 170.248 304.453 169.984C304.909 169.72 305.275 169.336 305.551 168.832C305.839 168.316 305.983 167.716 305.983 167.032ZM312.8 163.522C313.1 163.018 313.496 162.628 313.988 162.352C314.492 162.064 315.086 161.92 315.77 161.92V164.044H315.248C314.444 164.044 313.832 164.248 313.412 164.656C313.004 165.064 312.8 165.772 312.8 166.78V172H310.748V162.082H312.8V163.522ZM326.747 166.798C326.747 167.17 326.723 167.506 326.675 167.806H319.097C319.157 168.598 319.451 169.234 319.979 169.714C320.507 170.194 321.155 170.434 321.923 170.434C323.027 170.434 323.807 169.972 324.263 169.048H326.477C326.177 169.96 325.631 170.71 324.839 171.298C324.059 171.874 323.087 172.162 321.923 172.162C320.975 172.162 320.123 171.952 319.367 171.532C318.623 171.1 318.035 170.5 317.603 169.732C317.183 168.952 316.973 168.052 316.973 167.032C316.973 166.012 317.177 165.118 317.585 164.35C318.005 163.57 318.587 162.97 319.331 162.55C320.087 162.13 320.951 161.92 321.923 161.92C322.859 161.92 323.693 162.124 324.425 162.532C325.157 162.94 325.727 163.516 326.135 164.26C326.543 164.992 326.747 165.838 326.747 166.798ZM324.605 166.15C324.593 165.394 324.323 164.788 323.795 164.332C323.267 163.876 322.613 163.648 321.833 163.648C321.125 163.648 320.519 163.876 320.015 164.332C319.511 164.776 319.211 165.382 319.115 166.15H324.605ZM331.016 169.534L328.838 174.502H327.506L328.784 169.534H331.016ZM342.615 161.92C343.371 161.92 344.043 162.082 344.631 162.406C345.231 162.73 345.699 163.21 346.035 163.846C346.383 164.482 346.557 165.25 346.557 166.15V172H344.523V166.456C344.523 165.568 344.301 164.89 343.857 164.422C343.413 163.942 342.807 163.702 342.039 163.702C341.271 163.702 340.659 163.942 340.203 164.422C339.759 164.89 339.537 165.568 339.537 166.456V172H337.485V158.68H339.537V163.234C339.885 162.814 340.323 162.49 340.851 162.262C341.391 162.034 341.979 161.92 342.615 161.92ZM350.218 160.768C349.846 160.768 349.534 160.642 349.282 160.39C349.03 160.138 348.904 159.826 348.904 159.454C348.904 159.082 349.03 158.77 349.282 158.518C349.534 158.266 349.846 158.14 350.218 158.14C350.578 158.14 350.884 158.266 351.136 158.518C351.388 158.77 351.514 159.082 351.514 159.454C351.514 159.826 351.388 160.138 351.136 160.39C350.884 160.642 350.578 160.768 350.218 160.768ZM351.226 162.082V172H349.174V162.082H351.226ZM357.916 161.92C358.684 161.92 359.362 162.076 359.95 162.388C360.55 162.688 361.018 163.066 361.354 163.522V162.082H363.424V172.162C363.424 173.074 363.232 173.884 362.848 174.592C362.464 175.312 361.906 175.876 361.174 176.284C360.454 176.692 359.59 176.896 358.582 176.896C357.238 176.896 356.122 176.578 355.234 175.942C354.346 175.318 353.842 174.466 353.722 173.386H355.756C355.912 173.902 356.242 174.316 356.746 174.628C357.262 174.952 357.874 175.114 358.582 175.114C359.41 175.114 360.076 174.862 360.58 174.358C361.096 173.854 361.354 173.122 361.354 172.162V170.506C361.006 170.974 360.532 171.37 359.932 171.694C359.344 172.006 358.672 172.162 357.916 172.162C357.052 172.162 356.26 171.946 355.54 171.514C354.832 171.07 354.268 170.458 353.848 169.678C353.44 168.886 353.236 167.992 353.236 166.996C353.236 166 353.44 165.118 353.848 164.35C354.268 163.582 354.832 162.988 355.54 162.568C356.26 162.136 357.052 161.92 357.916 161.92ZM361.354 167.032C361.354 166.348 361.21 165.754 360.922 165.25C360.646 164.746 360.28 164.362 359.824 164.098C359.368 163.834 358.876 163.702 358.348 163.702C357.82 163.702 357.328 163.834 356.872 164.098C356.416 164.35 356.044 164.728 355.756 165.232C355.48 165.724 355.342 166.312 355.342 166.996C355.342 167.68 355.48 168.28 355.756 168.796C356.044 169.312 356.416 169.708 356.872 169.984C357.34 170.248 357.832 170.38 358.348 170.38C358.876 170.38 359.368 170.248 359.824 169.984C360.28 169.72 360.646 169.336 360.922 168.832C361.21 168.316 361.354 167.716 361.354 167.032ZM371.25 161.92C372.006 161.92 372.678 162.082 373.266 162.406C373.866 162.73 374.334 163.21 374.67 163.846C375.018 164.482 375.192 165.25 375.192 166.15V172H373.158V166.456C373.158 165.568 372.936 164.89 372.492 164.422C372.048 163.942 371.442 163.702 370.674 163.702C369.906 163.702 369.294 163.942 368.838 164.422C368.394 164.89 368.172 165.568 368.172 166.456V172H366.12V158.68H368.172V163.234C368.52 162.814 368.958 162.49 369.486 162.262C370.026 162.034 370.614 161.92 371.25 161.92ZM379.861 158.68V172H377.809V158.68H379.861ZM391.483 162.082L385.399 176.662H383.275L385.291 171.838L381.385 162.082H383.671L386.461 169.642L389.359 162.082H391.483ZM247.867 190.522C248.167 190.018 248.563 189.628 249.055 189.352C249.559 189.064 250.153 188.92 250.837 188.92V191.044H250.315C249.511 191.044 248.899 191.248 248.479 191.656C248.071 192.064 247.867 192.772 247.867 193.78V199H245.815V189.082H247.867V190.522ZM261.813 193.798C261.813 194.17 261.789 194.506 261.741 194.806H254.163C254.223 195.598 254.517 196.234 255.045 196.714C255.573 197.194 256.221 197.434 256.989 197.434C258.093 197.434 258.873 196.972 259.329 196.048H261.543C261.243 196.96 260.697 197.71 259.905 198.298C259.125 198.874 258.153 199.162 256.989 199.162C256.041 199.162 255.189 198.952 254.433 198.532C253.689 198.1 253.101 197.5 252.669 196.732C252.249 195.952 252.039 195.052 252.039 194.032C252.039 193.012 252.243 192.118 252.651 191.35C253.071 190.57 253.653 189.97 254.397 189.55C255.153 189.13 256.017 188.92 256.989 188.92C257.925 188.92 258.759 189.124 259.491 189.532C260.223 189.94 260.793 190.516 261.201 191.26C261.609 191.992 261.813 192.838 261.813 193.798ZM259.671 193.15C259.659 192.394 259.389 191.788 258.861 191.332C258.333 190.876 257.679 190.648 256.899 190.648C256.191 190.648 255.585 190.876 255.081 191.332C254.577 191.776 254.277 192.382 254.181 193.15H259.671ZM263.148 194.032C263.148 193.012 263.352 192.118 263.76 191.35C264.18 190.57 264.756 189.97 265.488 189.55C266.22 189.13 267.06 188.92 268.008 188.92C269.208 188.92 270.198 189.208 270.978 189.784C271.77 190.348 272.304 191.158 272.58 192.214H270.366C270.186 191.722 269.898 191.338 269.502 191.062C269.106 190.786 268.608 190.648 268.008 190.648C267.168 190.648 266.496 190.948 265.992 191.548C265.5 192.136 265.254 192.964 265.254 194.032C265.254 195.1 265.5 195.934 265.992 196.534C266.496 197.134 267.168 197.434 268.008 197.434C269.196 197.434 269.982 196.912 270.366 195.868H272.58C272.292 196.876 271.752 197.68 270.96 198.28C270.168 198.868 269.184 199.162 268.008 199.162C267.06 199.162 266.22 198.952 265.488 198.532C264.756 198.1 264.18 197.5 263.76 196.732C263.352 195.952 263.148 195.052 263.148 194.032ZM278.927 199.162C277.991 199.162 277.145 198.952 276.389 198.532C275.633 198.1 275.039 197.5 274.607 196.732C274.175 195.952 273.959 195.052 273.959 194.032C273.959 193.024 274.181 192.13 274.625 191.35C275.069 190.57 275.675 189.97 276.443 189.55C277.211 189.13 278.069 188.92 279.017 188.92C279.965 188.92 280.823 189.13 281.591 189.55C282.359 189.97 282.965 190.57 283.409 191.35C283.853 192.13 284.075 193.024 284.075 194.032C284.075 195.04 283.847 195.934 283.391 196.714C282.935 197.494 282.311 198.1 281.519 198.532C280.739 198.952 279.875 199.162 278.927 199.162ZM278.927 197.38C279.455 197.38 279.947 197.254 280.403 197.002C280.871 196.75 281.249 196.372 281.537 195.868C281.825 195.364 281.969 194.752 281.969 194.032C281.969 193.312 281.831 192.706 281.555 192.214C281.279 191.71 280.913 191.332 280.457 191.08C280.001 190.828 279.509 190.702 278.981 190.702C278.453 190.702 277.961 190.828 277.505 191.08C277.061 191.332 276.707 191.71 276.443 192.214C276.179 192.706 276.047 193.312 276.047 194.032C276.047 195.1 276.317 195.928 276.857 196.516C277.409 197.092 278.099 197.38 278.927 197.38ZM298.11 188.92C298.89 188.92 299.586 189.082 300.198 189.406C300.822 189.73 301.308 190.21 301.656 190.846C302.016 191.482 302.196 192.25 302.196 193.15V199H300.162V193.456C300.162 192.568 299.94 191.89 299.496 191.422C299.052 190.942 298.446 190.702 297.678 190.702C296.91 190.702 296.298 190.942 295.842 191.422C295.398 191.89 295.176 192.568 295.176 193.456V199H293.142V193.456C293.142 192.568 292.92 191.89 292.476 191.422C292.032 190.942 291.426 190.702 290.658 190.702C289.89 190.702 289.278 190.942 288.822 191.422C288.378 191.89 288.156 192.568 288.156 193.456V199H286.104V189.082H288.156V190.216C288.492 189.808 288.918 189.49 289.434 189.262C289.95 189.034 290.502 188.92 291.09 188.92C291.882 188.92 292.59 189.088 293.214 189.424C293.838 189.76 294.318 190.246 294.654 190.882C294.954 190.282 295.422 189.808 296.058 189.46C296.694 189.1 297.378 188.92 298.11 188.92ZM316.813 188.92C317.593 188.92 318.289 189.082 318.901 189.406C319.525 189.73 320.011 190.21 320.359 190.846C320.719 191.482 320.899 192.25 320.899 193.15V199H318.865V193.456C318.865 192.568 318.643 191.89 318.199 191.422C317.755 190.942 317.149 190.702 316.381 190.702C315.613 190.702 315.001 190.942 314.545 191.422C314.101 191.89 313.879 192.568 313.879 193.456V199H311.845V193.456C311.845 192.568 311.623 191.89 311.179 191.422C310.735 190.942 310.129 190.702 309.361 190.702C308.593 190.702 307.981 190.942 307.525 191.422C307.081 191.89 306.859 192.568 306.859 193.456V199H304.807V189.082H306.859V190.216C307.195 189.808 307.621 189.49 308.137 189.262C308.653 189.034 309.205 188.92 309.793 188.92C310.585 188.92 311.293 189.088 311.917 189.424C312.541 189.76 313.021 190.246 313.357 190.882C313.657 190.282 314.125 189.808 314.761 189.46C315.397 189.1 316.081 188.92 316.813 188.92ZM332.6 193.798C332.6 194.17 332.576 194.506 332.528 194.806H324.95C325.01 195.598 325.304 196.234 325.832 196.714C326.36 197.194 327.008 197.434 327.776 197.434C328.88 197.434 329.66 196.972 330.116 196.048H332.33C332.03 196.96 331.484 197.71 330.692 198.298C329.912 198.874 328.94 199.162 327.776 199.162C326.828 199.162 325.976 198.952 325.22 198.532C324.476 198.1 323.888 197.5 323.456 196.732C323.036 195.952 322.826 195.052 322.826 194.032C322.826 193.012 323.03 192.118 323.438 191.35C323.858 190.57 324.44 189.97 325.184 189.55C325.94 189.13 326.804 188.92 327.776 188.92C328.712 188.92 329.546 189.124 330.278 189.532C331.01 189.94 331.58 190.516 331.988 191.26C332.396 191.992 332.6 192.838 332.6 193.798ZM330.458 193.15C330.446 192.394 330.176 191.788 329.648 191.332C329.12 190.876 328.466 190.648 327.686 190.648C326.978 190.648 326.372 190.876 325.868 191.332C325.364 191.776 325.064 192.382 324.968 193.15H330.458ZM339.624 188.92C340.404 188.92 341.1 189.082 341.712 189.406C342.336 189.73 342.822 190.21 343.17 190.846C343.518 191.482 343.692 192.25 343.692 193.15V199H341.658V193.456C341.658 192.568 341.436 191.89 340.992 191.422C340.548 190.942 339.942 190.702 339.174 190.702C338.406 190.702 337.794 190.942 337.338 191.422C336.894 191.89 336.672 192.568 336.672 193.456V199H334.62V189.082H336.672V190.216C337.008 189.808 337.434 189.49 337.95 189.262C338.478 189.034 339.036 188.92 339.624 188.92ZM345.625 193.996C345.625 193 345.829 192.118 346.237 191.35C346.657 190.582 347.221 189.988 347.929 189.568C348.649 189.136 349.447 188.92 350.323 188.92C350.971 188.92 351.607 189.064 352.231 189.352C352.867 189.628 353.371 190 353.743 190.468V185.68H355.813V199H353.743V197.506C353.407 197.986 352.939 198.382 352.339 198.694C351.751 199.006 351.073 199.162 350.305 199.162C349.441 199.162 348.649 198.946 347.929 198.514C347.221 198.07 346.657 197.458 346.237 196.678C345.829 195.886 345.625 194.992 345.625 193.996ZM353.743 194.032C353.743 193.348 353.599 192.754 353.311 192.25C353.035 191.746 352.669 191.362 352.213 191.098C351.757 190.834 351.265 190.702 350.737 190.702C350.209 190.702 349.717 190.834 349.261 191.098C348.805 191.35 348.433 191.728 348.145 192.232C347.869 192.724 347.731 193.312 347.731 193.996C347.731 194.68 347.869 195.28 348.145 195.796C348.433 196.312 348.805 196.708 349.261 196.984C349.729 197.248 350.221 197.38 350.737 197.38C351.265 197.38 351.757 197.248 352.213 196.984C352.669 196.72 353.035 196.336 353.311 195.832C353.599 195.316 353.743 194.716 353.743 194.032ZM361.082 186.49L360.848 195.22H359.138L358.904 186.49H361.082ZM360.056 199.126C359.684 199.126 359.372 199 359.12 198.748C358.868 198.496 358.742 198.184 358.742 197.812C358.742 197.44 358.868 197.128 359.12 196.876C359.372 196.624 359.684 196.498 360.056 196.498C360.416 196.498 360.722 196.624 360.974 196.876C361.226 197.128 361.352 197.44 361.352 197.812C361.352 198.184 361.226 198.496 360.974 198.748C360.722 199 360.416 199.126 360.056 199.126ZM364.615 186.49H366.847L364.957 190.774H363.517L364.615 186.49ZM367.855 186.49H370.087L368.197 190.774H366.757L367.855 186.49Z" fill="white"/>
<path d="M673.87 252.774H671.638L673.528 248.49H674.968L673.87 252.774ZM677.11 252.774H674.878L676.768 248.49H678.208L677.11 252.774ZM679.448 255.996C679.448 255 679.652 254.118 680.06 253.35C680.48 252.582 681.044 251.988 681.752 251.568C682.472 251.136 683.264 250.92 684.128 250.92C684.908 250.92 685.586 251.076 686.162 251.388C686.75 251.688 687.218 252.066 687.566 252.522V251.082H689.636V261H687.566V259.524C687.218 259.992 686.744 260.382 686.144 260.694C685.544 261.006 684.86 261.162 684.092 261.162C683.24 261.162 682.46 260.946 681.752 260.514C681.044 260.07 680.48 259.458 680.06 258.678C679.652 257.886 679.448 256.992 679.448 255.996ZM687.566 256.032C687.566 255.348 687.422 254.754 687.134 254.25C686.858 253.746 686.492 253.362 686.036 253.098C685.58 252.834 685.088 252.702 684.56 252.702C684.032 252.702 683.54 252.834 683.084 253.098C682.628 253.35 682.256 253.728 681.968 254.232C681.692 254.724 681.554 255.312 681.554 255.996C681.554 256.68 681.692 257.28 681.968 257.796C682.256 258.312 682.628 258.708 683.084 258.984C683.552 259.248 684.044 259.38 684.56 259.38C685.088 259.38 685.58 259.248 686.036 258.984C686.492 258.72 686.858 258.336 687.134 257.832C687.422 257.316 687.566 256.716 687.566 256.032ZM694.383 252.558C694.731 252.078 695.205 251.688 695.805 251.388C696.417 251.076 697.095 250.92 697.839 250.92C698.715 250.92 699.507 251.13 700.215 251.55C700.923 251.97 701.481 252.57 701.889 253.35C702.297 254.118 702.501 255 702.501 255.996C702.501 256.992 702.297 257.886 701.889 258.678C701.481 259.458 700.917 260.07 700.197 260.514C699.489 260.946 698.703 261.162 697.839 261.162C697.071 261.162 696.387 261.012 695.787 260.712C695.199 260.412 694.731 260.028 694.383 259.56V261H692.331V247.68H694.383V252.558ZM700.413 255.996C700.413 255.312 700.269 254.724 699.981 254.232C699.705 253.728 699.333 253.35 698.865 253.098C698.409 252.834 697.917 252.702 697.389 252.702C696.873 252.702 696.381 252.834 695.913 253.098C695.457 253.362 695.085 253.746 694.797 254.25C694.521 254.754 694.383 255.348 694.383 256.032C694.383 256.716 694.521 257.316 694.797 257.832C695.085 258.336 695.457 258.72 695.913 258.984C696.381 259.248 696.873 259.38 697.389 259.38C697.917 259.38 698.409 259.248 698.865 258.984C699.333 258.708 699.705 258.312 699.981 257.796C700.269 257.28 700.413 256.68 700.413 255.996ZM708.131 261.162C707.351 261.162 706.649 261.024 706.025 260.748C705.413 260.46 704.927 260.076 704.567 259.596C704.207 259.104 704.015 258.558 703.991 257.958H706.115C706.151 258.378 706.349 258.732 706.709 259.02C707.081 259.296 707.543 259.434 708.095 259.434C708.671 259.434 709.115 259.326 709.427 259.11C709.751 258.882 709.913 258.594 709.913 258.246C709.913 257.874 709.733 257.598 709.373 257.418C709.025 257.238 708.467 257.04 707.699 256.824C706.955 256.62 706.349 256.422 705.881 256.23C705.413 256.038 705.005 255.744 704.657 255.348C704.321 254.952 704.153 254.43 704.153 253.782C704.153 253.254 704.309 252.774 704.621 252.342C704.933 251.898 705.377 251.55 705.953 251.298C706.541 251.046 707.213 250.92 707.969 250.92C709.097 250.92 710.003 251.208 710.687 251.784C711.383 252.348 711.755 253.122 711.803 254.106H709.751C709.715 253.662 709.535 253.308 709.211 253.044C708.887 252.78 708.449 252.648 707.897 252.648C707.357 252.648 706.943 252.75 706.655 252.954C706.367 253.158 706.223 253.428 706.223 253.764C706.223 254.028 706.319 254.25 706.511 254.43C706.703 254.61 706.937 254.754 707.213 254.862C707.489 254.958 707.897 255.084 708.437 255.24C709.157 255.432 709.745 255.63 710.201 255.834C710.669 256.026 711.071 256.314 711.407 256.698C711.743 257.082 711.917 257.592 711.929 258.228C711.929 258.792 711.773 259.296 711.461 259.74C711.149 260.184 710.705 260.532 710.129 260.784C709.565 261.036 708.899 261.162 708.131 261.162ZM718.448 261.162C717.512 261.162 716.666 260.952 715.91 260.532C715.154 260.1 714.56 259.5 714.128 258.732C713.696 257.952 713.48 257.052 713.48 256.032C713.48 255.024 713.702 254.13 714.146 253.35C714.59 252.57 715.196 251.97 715.964 251.55C716.732 251.13 717.59 250.92 718.538 250.92C719.486 250.92 720.344 251.13 721.112 251.55C721.88 251.97 722.486 252.57 722.93 253.35C723.374 254.13 723.596 255.024 723.596 256.032C723.596 257.04 723.368 257.934 722.912 258.714C722.456 259.494 721.832 260.1 721.04 260.532C720.26 260.952 719.396 261.162 718.448 261.162ZM718.448 259.38C718.976 259.38 719.468 259.254 719.924 259.002C720.392 258.75 720.77 258.372 721.058 257.868C721.346 257.364 721.49 256.752 721.49 256.032C721.49 255.312 721.352 254.706 721.076 254.214C720.8 253.71 720.434 253.332 719.978 253.08C719.522 252.828 719.03 252.702 718.502 252.702C717.974 252.702 717.482 252.828 717.026 253.08C716.582 253.332 716.228 253.71 715.964 254.214C715.7 254.706 715.568 255.312 715.568 256.032C715.568 257.1 715.838 257.928 716.378 258.516C716.93 259.092 717.62 259.38 718.448 259.38ZM727.676 247.68V261H725.624V247.68H727.676ZM739.353 251.082V261H737.301V259.83C736.977 260.238 736.551 260.562 736.023 260.802C735.507 261.03 734.955 261.144 734.367 261.144C733.587 261.144 732.885 260.982 732.261 260.658C731.649 260.334 731.163 259.854 730.803 259.218C730.455 258.582 730.281 257.814 730.281 256.914V251.082H732.315V256.608C732.315 257.496 732.537 258.18 732.981 258.66C733.425 259.128 734.031 259.362 734.799 259.362C735.567 259.362 736.173 259.128 736.617 258.66C737.073 258.18 737.301 257.496 737.301 256.608V251.082H739.353ZM744.454 252.756V258.246C744.454 258.618 744.538 258.888 744.706 259.056C744.886 259.212 745.186 259.29 745.606 259.29H746.866V261H745.246C744.322 261 743.614 260.784 743.122 260.352C742.63 259.92 742.384 259.218 742.384 258.246V252.756H741.214V251.082H742.384V248.616H744.454V251.082H746.866V252.756H744.454ZM757.847 255.798C757.847 256.17 757.823 256.506 757.775 256.806H750.197C750.257 257.598 750.551 258.234 751.079 258.714C751.607 259.194 752.255 259.434 753.023 259.434C754.127 259.434 754.907 258.972 755.363 258.048H757.577C757.277 258.96 756.731 259.71 755.939 260.298C755.159 260.874 754.187 261.162 753.023 261.162C752.075 261.162 751.223 260.952 750.467 260.532C749.723 260.1 749.135 259.5 748.703 258.732C748.283 257.952 748.073 257.052 748.073 256.032C748.073 255.012 748.277 254.118 748.685 253.35C749.105 252.57 749.687 251.97 750.431 251.55C751.187 251.13 752.051 250.92 753.023 250.92C753.959 250.92 754.793 251.124 755.525 251.532C756.257 251.94 756.827 252.516 757.235 253.26C757.643 253.992 757.847 254.838 757.847 255.798ZM755.705 255.15C755.693 254.394 755.423 253.788 754.895 253.332C754.367 252.876 753.713 252.648 752.933 252.648C752.225 252.648 751.619 252.876 751.115 253.332C750.611 253.776 750.311 254.382 750.215 255.15H755.705ZM761.919 247.68V261H759.867V247.68H761.919ZM773.541 251.082L767.457 265.662H765.333L767.349 260.838L763.443 251.082H765.729L768.519 258.642L771.417 251.082H773.541ZM788.855 255.798C788.855 256.17 788.831 256.506 788.783 256.806H781.205C781.265 257.598 781.559 258.234 782.087 258.714C782.615 259.194 783.263 259.434 784.031 259.434C785.135 259.434 785.915 258.972 786.371 258.048H788.585C788.285 258.96 787.739 259.71 786.947 260.298C786.167 260.874 785.195 261.162 784.031 261.162C783.083 261.162 782.231 260.952 781.475 260.532C780.731 260.1 780.143 259.5 779.711 258.732C779.291 257.952 779.081 257.052 779.081 256.032C779.081 255.012 779.285 254.118 779.693 253.35C780.113 252.57 780.695 251.97 781.439 251.55C782.195 251.13 783.059 250.92 784.031 250.92C784.967 250.92 785.801 251.124 786.533 251.532C787.265 251.94 787.835 252.516 788.243 253.26C788.651 253.992 788.855 254.838 788.855 255.798ZM786.713 255.15C786.701 254.394 786.431 253.788 785.903 253.332C785.375 252.876 784.721 252.648 783.941 252.648C783.233 252.648 782.627 252.876 782.123 253.332C781.619 253.776 781.319 254.382 781.223 255.15H786.713ZM795.878 250.92C796.658 250.92 797.354 251.082 797.966 251.406C798.59 251.73 799.076 252.21 799.424 252.846C799.772 253.482 799.946 254.25 799.946 255.15V261H797.912V255.456C797.912 254.568 797.69 253.89 797.246 253.422C796.802 252.942 796.196 252.702 795.428 252.702C794.66 252.702 794.048 252.942 793.592 253.422C793.148 253.89 792.926 254.568 792.926 255.456V261H790.874V251.082H792.926V252.216C793.262 251.808 793.688 251.49 794.204 251.262C794.732 251.034 795.29 250.92 795.878 250.92ZM801.88 255.996C801.88 255 802.084 254.118 802.492 253.35C802.912 252.582 803.476 251.988 804.184 251.568C804.904 251.136 805.696 250.92 806.56 250.92C807.34 250.92 808.018 251.076 808.594 251.388C809.182 251.688 809.65 252.066 809.998 252.522V251.082H812.068V261H809.998V259.524C809.65 259.992 809.176 260.382 808.576 260.694C807.976 261.006 807.292 261.162 806.524 261.162C805.672 261.162 804.892 260.946 804.184 260.514C803.476 260.07 802.912 259.458 802.492 258.678C802.084 257.886 801.88 256.992 801.88 255.996ZM809.998 256.032C809.998 255.348 809.854 254.754 809.566 254.25C809.29 253.746 808.924 253.362 808.468 253.098C808.012 252.834 807.52 252.702 806.992 252.702C806.464 252.702 805.972 252.834 805.516 253.098C805.06 253.35 804.688 253.728 804.4 254.232C804.124 254.724 803.986 255.312 803.986 255.996C803.986 256.68 804.124 257.28 804.4 257.796C804.688 258.312 805.06 258.708 805.516 258.984C805.984 259.248 806.476 259.38 806.992 259.38C807.52 259.38 808.012 259.248 808.468 258.984C808.924 258.72 809.29 258.336 809.566 257.832C809.854 257.316 809.998 256.716 809.998 256.032ZM826.769 250.92C827.549 250.92 828.245 251.082 828.857 251.406C829.481 251.73 829.967 252.21 830.315 252.846C830.675 253.482 830.855 254.25 830.855 255.15V261H828.821V255.456C828.821 254.568 828.599 253.89 828.155 253.422C827.711 252.942 827.105 252.702 826.337 252.702C825.569 252.702 824.957 252.942 824.501 253.422C824.057 253.89 823.835 254.568 823.835 255.456V261H821.801V255.456C821.801 254.568 821.579 253.89 821.135 253.422C820.691 252.942 820.085 252.702 819.317 252.702C818.549 252.702 817.937 252.942 817.481 253.422C817.037 253.89 816.815 254.568 816.815 255.456V261H814.763V251.082H816.815V252.216C817.151 251.808 817.577 251.49 818.093 251.262C818.609 251.034 819.161 250.92 819.749 250.92C820.541 250.92 821.249 251.088 821.873 251.424C822.497 251.76 822.977 252.246 823.313 252.882C823.613 252.282 824.081 251.808 824.717 251.46C825.353 251.1 826.037 250.92 826.769 250.92ZM837.768 261.162C836.832 261.162 835.986 260.952 835.23 260.532C834.474 260.1 833.88 259.5 833.448 258.732C833.016 257.952 832.8 257.052 832.8 256.032C832.8 255.024 833.022 254.13 833.466 253.35C833.91 252.57 834.516 251.97 835.284 251.55C836.052 251.13 836.91 250.92 837.858 250.92C838.806 250.92 839.664 251.13 840.432 251.55C841.2 251.97 841.806 252.57 842.25 253.35C842.694 254.13 842.916 255.024 842.916 256.032C842.916 257.04 842.688 257.934 842.232 258.714C841.776 259.494 841.152 260.1 840.36 260.532C839.58 260.952 838.716 261.162 837.768 261.162ZM837.768 259.38C838.296 259.38 838.788 259.254 839.244 259.002C839.712 258.75 840.09 258.372 840.378 257.868C840.666 257.364 840.81 256.752 840.81 256.032C840.81 255.312 840.672 254.706 840.396 254.214C840.12 253.71 839.754 253.332 839.298 253.08C838.842 252.828 838.35 252.702 837.822 252.702C837.294 252.702 836.802 252.828 836.346 253.08C835.902 253.332 835.548 253.71 835.284 254.214C835.02 254.706 834.888 255.312 834.888 256.032C834.888 257.1 835.158 257.928 835.698 258.516C836.25 259.092 836.94 259.38 837.768 259.38ZM846.997 252.522C847.297 252.018 847.693 251.628 848.185 251.352C848.689 251.064 849.283 250.92 849.967 250.92V253.044H849.445C848.641 253.044 848.029 253.248 847.609 253.656C847.201 254.064 846.997 254.772 846.997 255.78V261H844.945V251.082H846.997V252.522ZM860.943 255.798C860.943 256.17 860.919 256.506 860.871 256.806H853.293C853.353 257.598 853.647 258.234 854.175 258.714C854.703 259.194 855.351 259.434 856.119 259.434C857.223 259.434 858.003 258.972 858.459 258.048H860.673C860.373 258.96 859.827 259.71 859.035 260.298C858.255 260.874 857.283 261.162 856.119 261.162C855.171 261.162 854.319 260.952 853.563 260.532C852.819 260.1 852.231 259.5 851.799 258.732C851.379 257.952 851.169 257.052 851.169 256.032C851.169 255.012 851.373 254.118 851.781 253.35C852.201 252.57 852.783 251.97 853.527 251.55C854.283 251.13 855.147 250.92 856.119 250.92C857.055 250.92 857.889 251.124 858.621 251.532C859.353 251.94 859.923 252.516 860.331 253.26C860.739 253.992 860.943 254.838 860.943 255.798ZM858.801 255.15C858.789 254.394 858.519 253.788 857.991 253.332C857.463 252.876 856.809 252.648 856.029 252.648C855.321 252.648 854.715 252.876 854.211 253.332C853.707 253.776 853.407 254.382 853.311 255.15H858.801ZM862.278 255.996C862.278 255 862.482 254.118 862.89 253.35C863.31 252.582 863.874 251.988 864.582 251.568C865.302 251.136 866.1 250.92 866.976 250.92C867.624 250.92 868.26 251.064 868.884 251.352C869.52 251.628 870.024 252 870.396 252.468V247.68H872.466V261H870.396V259.506C870.06 259.986 869.592 260.382 868.992 260.694C868.404 261.006 867.726 261.162 866.958 261.162C866.094 261.162 865.302 260.946 864.582 260.514C863.874 260.07 863.31 259.458 862.89 258.678C862.482 257.886 862.278 256.992 862.278 255.996ZM870.396 256.032C870.396 255.348 870.252 254.754 869.964 254.25C869.688 253.746 869.322 253.362 868.866 253.098C868.41 252.834 867.918 252.702 867.39 252.702C866.862 252.702 866.37 252.834 865.914 253.098C865.458 253.35 865.086 253.728 864.798 254.232C864.522 254.724 864.384 255.312 864.384 255.996C864.384 256.68 864.522 257.28 864.798 257.796C865.086 258.312 865.458 258.708 865.914 258.984C866.382 259.248 866.874 259.38 867.39 259.38C867.918 259.38 868.41 259.248 868.866 258.984C869.322 258.72 869.688 258.336 869.964 257.832C870.252 257.316 870.396 256.716 870.396 256.032ZM680.884 278.082L677.806 288H675.646L673.648 280.674L671.65 288H669.49L666.394 278.082H668.482L670.552 286.056L672.658 278.082H674.8L676.816 286.02L678.868 278.082H680.884ZM683.461 276.768C683.089 276.768 682.777 276.642 682.525 276.39C682.273 276.138 682.147 275.826 682.147 275.454C682.147 275.082 682.273 274.77 682.525 274.518C682.777 274.266 683.089 274.14 683.461 274.14C683.821 274.14 684.127 274.266 684.379 274.518C684.631 274.77 684.757 275.082 684.757 275.454C684.757 275.826 684.631 276.138 684.379 276.39C684.127 276.642 683.821 276.768 683.461 276.768ZM684.469 278.082V288H682.417V278.082H684.469ZM689.557 279.756V285.246C689.557 285.618 689.641 285.888 689.809 286.056C689.989 286.212 690.289 286.29 690.709 286.29H691.969V288H690.349C689.425 288 688.717 287.784 688.225 287.352C687.733 286.92 687.487 286.218 687.487 285.246V279.756H686.317V278.082H687.487V275.616H689.557V278.082H691.969V279.756H689.557ZM698.991 277.92C699.747 277.92 700.419 278.082 701.007 278.406C701.607 278.73 702.075 279.21 702.411 279.846C702.759 280.482 702.933 281.25 702.933 282.15V288H700.899V282.456C700.899 281.568 700.677 280.89 700.233 280.422C699.789 279.942 699.183 279.702 698.415 279.702C697.647 279.702 697.035 279.942 696.579 280.422C696.135 280.89 695.913 281.568 695.913 282.456V288H693.861V274.68H695.913V279.234C696.261 278.814 696.699 278.49 697.227 278.262C697.767 278.034 698.355 277.92 698.991 277.92ZM712.62 279.756V285.246C712.62 285.618 712.704 285.888 712.872 286.056C713.052 286.212 713.352 286.29 713.772 286.29H715.032V288H713.412C712.488 288 711.78 287.784 711.288 287.352C710.796 286.92 710.55 286.218 710.55 285.246V279.756H709.38V278.082H710.55V275.616H712.62V278.082H715.032V279.756H712.62ZM722.053 277.92C722.809 277.92 723.481 278.082 724.069 278.406C724.669 278.73 725.137 279.21 725.473 279.846C725.821 280.482 725.995 281.25 725.995 282.15V288H723.961V282.456C723.961 281.568 723.739 280.89 723.295 280.422C722.851 279.942 722.245 279.702 721.477 279.702C720.709 279.702 720.097 279.942 719.641 280.422C719.197 280.89 718.975 281.568 718.975 282.456V288H716.923V274.68H718.975V279.234C719.323 278.814 719.761 278.49 720.289 278.262C720.829 278.034 721.417 277.92 722.053 277.92ZM737.703 282.798C737.703 283.17 737.679 283.506 737.631 283.806H730.053C730.113 284.598 730.407 285.234 730.935 285.714C731.463 286.194 732.111 286.434 732.879 286.434C733.983 286.434 734.763 285.972 735.219 285.048H737.433C737.133 285.96 736.587 286.71 735.795 287.298C735.015 287.874 734.043 288.162 732.879 288.162C731.931 288.162 731.079 287.952 730.323 287.532C729.579 287.1 728.991 286.5 728.559 285.732C728.139 284.952 727.929 284.052 727.929 283.032C727.929 282.012 728.133 281.118 728.541 280.35C728.961 279.57 729.543 278.97 730.287 278.55C731.043 278.13 731.907 277.92 732.879 277.92C733.815 277.92 734.649 278.124 735.381 278.532C736.113 278.94 736.683 279.516 737.091 280.26C737.499 280.992 737.703 281.838 737.703 282.798ZM735.561 282.15C735.549 281.394 735.279 280.788 734.751 280.332C734.223 279.876 733.569 279.648 732.789 279.648C732.081 279.648 731.475 279.876 730.971 280.332C730.467 280.776 730.167 281.382 730.071 282.15H735.561ZM748.7 288.162C747.764 288.162 746.918 287.952 746.162 287.532C745.406 287.1 744.812 286.5 744.38 285.732C743.948 284.952 743.732 284.052 743.732 283.032C743.732 282.024 743.954 281.13 744.398 280.35C744.842 279.57 745.448 278.97 746.216 278.55C746.984 278.13 747.842 277.92 748.79 277.92C749.738 277.92 750.596 278.13 751.364 278.55C752.132 278.97 752.738 279.57 753.182 280.35C753.626 281.13 753.848 282.024 753.848 283.032C753.848 284.04 753.62 284.934 753.164 285.714C752.708 286.494 752.084 287.1 751.292 287.532C750.512 287.952 749.648 288.162 748.7 288.162ZM748.7 286.38C749.228 286.38 749.72 286.254 750.176 286.002C750.644 285.75 751.022 285.372 751.31 284.868C751.598 284.364 751.742 283.752 751.742 283.032C751.742 282.312 751.604 281.706 751.328 281.214C751.052 280.71 750.686 280.332 750.23 280.08C749.774 279.828 749.282 279.702 748.754 279.702C748.226 279.702 747.734 279.828 747.278 280.08C746.834 280.332 746.48 280.71 746.216 281.214C745.952 281.706 745.82 282.312 745.82 283.032C745.82 284.1 746.09 284.928 746.63 285.516C747.182 286.092 747.872 286.38 748.7 286.38ZM757.928 279.522C758.228 279.018 758.624 278.628 759.116 278.352C759.62 278.064 760.214 277.92 760.898 277.92V280.044H760.376C759.572 280.044 758.96 280.248 758.54 280.656C758.132 281.064 757.928 281.772 757.928 282.78V288H755.876V278.082H757.928V279.522ZM766.781 277.92C767.549 277.92 768.227 278.076 768.815 278.388C769.415 278.688 769.883 279.066 770.219 279.522V278.082H772.289V288.162C772.289 289.074 772.097 289.884 771.713 290.592C771.329 291.312 770.771 291.876 770.039 292.284C769.319 292.692 768.455 292.896 767.447 292.896C766.103 292.896 764.987 292.578 764.099 291.942C763.211 291.318 762.707 290.466 762.587 289.386H764.621C764.777 289.902 765.107 290.316 765.611 290.628C766.127 290.952 766.739 291.114 767.447 291.114C768.275 291.114 768.941 290.862 769.445 290.358C769.961 289.854 770.219 289.122 770.219 288.162V286.506C769.871 286.974 769.397 287.37 768.797 287.694C768.209 288.006 767.537 288.162 766.781 288.162C765.917 288.162 765.125 287.946 764.405 287.514C763.697 287.07 763.133 286.458 762.713 285.678C762.305 284.886 762.101 283.992 762.101 282.996C762.101 282 762.305 281.118 762.713 280.35C763.133 279.582 763.697 278.988 764.405 278.568C765.125 278.136 765.917 277.92 766.781 277.92ZM770.219 283.032C770.219 282.348 770.075 281.754 769.787 281.25C769.511 280.746 769.145 280.362 768.689 280.098C768.233 279.834 767.741 279.702 767.213 279.702C766.685 279.702 766.193 279.834 765.737 280.098C765.281 280.35 764.909 280.728 764.621 281.232C764.345 281.724 764.207 282.312 764.207 282.996C764.207 283.68 764.345 284.28 764.621 284.796C764.909 285.312 765.281 285.708 765.737 285.984C766.205 286.248 766.697 286.38 767.213 286.38C767.741 286.38 768.233 286.248 768.689 285.984C769.145 285.72 769.511 285.336 769.787 284.832C770.075 284.316 770.219 283.716 770.219 283.032ZM774.3 282.996C774.3 282 774.504 281.118 774.912 280.35C775.332 279.582 775.896 278.988 776.604 278.568C777.324 278.136 778.116 277.92 778.98 277.92C779.76 277.92 780.438 278.076 781.014 278.388C781.602 278.688 782.07 279.066 782.418 279.522V278.082H784.488V288H782.418V286.524C782.07 286.992 781.596 287.382 780.996 287.694C780.396 288.006 779.712 288.162 778.944 288.162C778.092 288.162 777.312 287.946 776.604 287.514C775.896 287.07 775.332 286.458 774.912 285.678C774.504 284.886 774.3 283.992 774.3 282.996ZM782.418 283.032C782.418 282.348 782.274 281.754 781.986 281.25C781.71 280.746 781.344 280.362 780.888 280.098C780.432 279.834 779.94 279.702 779.412 279.702C778.884 279.702 778.392 279.834 777.936 280.098C777.48 280.35 777.108 280.728 776.82 281.232C776.544 281.724 776.406 282.312 776.406 282.996C776.406 283.68 776.544 284.28 776.82 284.796C777.108 285.312 777.48 285.708 777.936 285.984C778.404 286.248 778.896 286.38 779.412 286.38C779.94 286.38 780.432 286.248 780.888 285.984C781.344 285.72 781.71 285.336 781.986 284.832C782.274 284.316 782.418 283.716 782.418 283.032ZM792.187 277.92C792.967 277.92 793.663 278.082 794.275 278.406C794.899 278.73 795.385 279.21 795.733 279.846C796.081 280.482 796.255 281.25 796.255 282.15V288H794.221V282.456C794.221 281.568 793.999 280.89 793.555 280.422C793.111 279.942 792.505 279.702 791.737 279.702C790.969 279.702 790.357 279.942 789.901 280.422C789.457 280.89 789.235 281.568 789.235 282.456V288H787.183V278.082H789.235V279.216C789.571 278.808 789.997 278.49 790.513 278.262C791.041 278.034 791.599 277.92 792.187 277.92ZM799.916 276.768C799.544 276.768 799.232 276.642 798.98 276.39C798.728 276.138 798.602 275.826 798.602 275.454C798.602 275.082 798.728 274.77 798.98 274.518C799.232 274.266 799.544 274.14 799.916 274.14C800.276 274.14 800.582 274.266 800.834 274.518C801.086 274.77 801.212 275.082 801.212 275.454C801.212 275.826 801.086 276.138 800.834 276.39C800.582 276.642 800.276 276.768 799.916 276.768ZM800.924 278.082V288H798.872V278.082H800.924ZM802.935 283.032C802.935 282.012 803.139 281.118 803.547 280.35C803.967 279.57 804.543 278.97 805.275 278.55C806.007 278.13 806.847 277.92 807.795 277.92C808.995 277.92 809.985 278.208 810.765 278.784C811.557 279.348 812.091 280.158 812.367 281.214H810.153C809.973 280.722 809.685 280.338 809.289 280.062C808.893 279.786 808.395 279.648 807.795 279.648C806.955 279.648 806.283 279.948 805.779 280.548C805.287 281.136 805.041 281.964 805.041 283.032C805.041 284.1 805.287 284.934 805.779 285.534C806.283 286.134 806.955 286.434 807.795 286.434C808.983 286.434 809.769 285.912 810.153 284.868H812.367C812.079 285.876 811.539 286.68 810.747 287.28C809.955 287.868 808.971 288.162 807.795 288.162C806.847 288.162 806.007 287.952 805.275 287.532C804.543 287.1 803.967 286.5 803.547 285.732C803.139 284.952 802.935 284.052 802.935 283.032ZM823.083 277.92C823.851 277.92 824.529 278.076 825.117 278.388C825.717 278.688 826.185 279.066 826.521 279.522V278.082H828.591V288.162C828.591 289.074 828.399 289.884 828.015 290.592C827.631 291.312 827.073 291.876 826.341 292.284C825.621 292.692 824.757 292.896 823.749 292.896C822.405 292.896 821.289 292.578 820.401 291.942C819.513 291.318 819.009 290.466 818.889 289.386H820.923C821.079 289.902 821.409 290.316 821.913 290.628C822.429 290.952 823.041 291.114 823.749 291.114C824.577 291.114 825.243 290.862 825.747 290.358C826.263 289.854 826.521 289.122 826.521 288.162V286.506C826.173 286.974 825.699 287.37 825.099 287.694C824.511 288.006 823.839 288.162 823.083 288.162C822.219 288.162 821.427 287.946 820.707 287.514C819.999 287.07 819.435 286.458 819.015 285.678C818.607 284.886 818.403 283.992 818.403 282.996C818.403 282 818.607 281.118 819.015 280.35C819.435 279.582 819.999 278.988 820.707 278.568C821.427 278.136 822.219 277.92 823.083 277.92ZM826.521 283.032C826.521 282.348 826.377 281.754 826.089 281.25C825.813 280.746 825.447 280.362 824.991 280.098C824.535 279.834 824.043 279.702 823.515 279.702C822.987 279.702 822.495 279.834 822.039 280.098C821.583 280.35 821.211 280.728 820.923 281.232C820.647 281.724 820.509 282.312 820.509 282.996C820.509 283.68 820.647 284.28 820.923 284.796C821.211 285.312 821.583 285.708 822.039 285.984C822.507 286.248 822.999 286.38 823.515 286.38C824.043 286.38 824.535 286.248 824.991 285.984C825.447 285.72 825.813 285.336 826.089 284.832C826.377 284.316 826.521 283.716 826.521 283.032ZM840.377 282.798C840.377 283.17 840.353 283.506 840.305 283.806H832.727C832.787 284.598 833.081 285.234 833.609 285.714C834.137 286.194 834.785 286.434 835.553 286.434C836.657 286.434 837.437 285.972 837.893 285.048H840.107C839.807 285.96 839.261 286.71 838.469 287.298C837.689 287.874 836.717 288.162 835.553 288.162C834.605 288.162 833.753 287.952 832.997 287.532C832.253 287.1 831.665 286.5 831.233 285.732C830.813 284.952 830.603 284.052 830.603 283.032C830.603 282.012 830.807 281.118 831.215 280.35C831.635 279.57 832.217 278.97 832.961 278.55C833.717 278.13 834.581 277.92 835.553 277.92C836.489 277.92 837.323 278.124 838.055 278.532C838.787 278.94 839.357 279.516 839.765 280.26C840.173 280.992 840.377 281.838 840.377 282.798ZM838.235 282.15C838.223 281.394 837.953 280.788 837.425 280.332C836.897 279.876 836.243 279.648 835.463 279.648C834.755 279.648 834.149 279.876 833.645 280.332C833.141 280.776 832.841 281.382 832.745 282.15H838.235ZM854.402 277.92C855.182 277.92 855.878 278.082 856.49 278.406C857.114 278.73 857.6 279.21 857.948 279.846C858.308 280.482 858.488 281.25 858.488 282.15V288H856.454V282.456C856.454 281.568 856.232 280.89 855.788 280.422C855.344 279.942 854.738 279.702 853.97 279.702C853.202 279.702 852.59 279.942 852.134 280.422C851.69 280.89 851.468 281.568 851.468 282.456V288H849.434V282.456C849.434 281.568 849.212 280.89 848.768 280.422C848.324 279.942 847.718 279.702 846.95 279.702C846.182 279.702 845.57 279.942 845.114 280.422C844.67 280.89 844.448 281.568 844.448 282.456V288H842.396V278.082H844.448V279.216C844.784 278.808 845.21 278.49 845.726 278.262C846.242 278.034 846.794 277.92 847.382 277.92C848.174 277.92 848.882 278.088 849.506 278.424C850.13 278.76 850.61 279.246 850.946 279.882C851.246 279.282 851.714 278.808 852.35 278.46C852.986 278.1 853.67 277.92 854.402 277.92ZM864.699 288.162C863.919 288.162 863.217 288.024 862.593 287.748C861.981 287.46 861.495 287.076 861.135 286.596C860.775 286.104 860.583 285.558 860.559 284.958H862.683C862.719 285.378 862.917 285.732 863.277 286.02C863.649 286.296 864.111 286.434 864.663 286.434C865.239 286.434 865.683 286.326 865.995 286.11C866.319 285.882 866.481 285.594 866.481 285.246C866.481 284.874 866.301 284.598 865.941 284.418C865.593 284.238 865.035 284.04 864.267 283.824C863.523 283.62 862.917 283.422 862.449 283.23C861.981 283.038 861.573 282.744 861.225 282.348C860.889 281.952 860.721 281.43 860.721 280.782C860.721 280.254 860.877 279.774 861.189 279.342C861.501 278.898 861.945 278.55 862.521 278.298C863.109 278.046 863.781 277.92 864.537 277.92C865.665 277.92 866.571 278.208 867.255 278.784C867.951 279.348 868.323 280.122 868.371 281.106H866.319C866.283 280.662 866.103 280.308 865.779 280.044C865.455 279.78 865.017 279.648 864.465 279.648C863.925 279.648 863.511 279.75 863.223 279.954C862.935 280.158 862.791 280.428 862.791 280.764C862.791 281.028 862.887 281.25 863.079 281.43C863.271 281.61 863.505 281.754 863.781 281.862C864.057 281.958 864.465 282.084 865.005 282.24C865.725 282.432 866.313 282.63 866.769 282.834C867.237 283.026 867.639 283.314 867.975 283.698C868.311 284.082 868.485 284.592 868.497 285.228C868.497 285.792 868.341 286.296 868.029 286.74C867.717 287.184 867.273 287.532 866.697 287.784C866.133 288.036 865.467 288.162 864.699 288.162ZM876.434 276.768C876.062 276.768 875.75 276.642 875.498 276.39C875.246 276.138 875.12 275.826 875.12 275.454C875.12 275.082 875.246 274.77 875.498 274.518C875.75 274.266 876.062 274.14 876.434 274.14C876.794 274.14 877.1 274.266 877.352 274.518C877.604 274.77 877.73 275.082 877.73 275.454C877.73 275.826 877.604 276.138 877.352 276.39C877.1 276.642 876.794 276.768 876.434 276.768ZM877.442 278.082V288H875.39V278.082H877.442ZM671.88 306.756H670.044V315H667.974V306.756H666.804V305.082H667.974V304.38C667.974 303.24 668.274 302.412 668.874 301.896C669.486 301.368 670.44 301.104 671.736 301.104V302.814C671.112 302.814 670.674 302.934 670.422 303.174C670.17 303.402 670.044 303.804 670.044 304.38V305.082H671.88V306.756ZM678.001 315.162C677.065 315.162 676.219 314.952 675.463 314.532C674.707 314.1 674.113 313.5 673.681 312.732C673.249 311.952 673.033 311.052 673.033 310.032C673.033 309.024 673.255 308.13 673.699 307.35C674.143 306.57 674.749 305.97 675.517 305.55C676.285 305.13 677.143 304.92 678.091 304.92C679.039 304.92 679.897 305.13 680.665 305.55C681.433 305.97 682.039 306.57 682.483 307.35C682.927 308.13 683.149 309.024 683.149 310.032C683.149 311.04 682.921 311.934 682.465 312.714C682.009 313.494 681.385 314.1 680.593 314.532C679.813 314.952 678.949 315.162 678.001 315.162ZM678.001 313.38C678.529 313.38 679.021 313.254 679.477 313.002C679.945 312.75 680.323 312.372 680.611 311.868C680.899 311.364 681.043 310.752 681.043 310.032C681.043 309.312 680.905 308.706 680.629 308.214C680.353 307.71 679.987 307.332 679.531 307.08C679.075 306.828 678.583 306.702 678.055 306.702C677.527 306.702 677.035 306.828 676.579 307.08C676.135 307.332 675.781 307.71 675.517 308.214C675.253 308.706 675.121 309.312 675.121 310.032C675.121 311.1 675.391 311.928 675.931 312.516C676.483 313.092 677.173 313.38 678.001 313.38ZM694.159 305.082V315H692.107V313.83C691.783 314.238 691.357 314.562 690.829 314.802C690.313 315.03 689.761 315.144 689.173 315.144C688.393 315.144 687.691 314.982 687.067 314.658C686.455 314.334 685.969 313.854 685.609 313.218C685.261 312.582 685.087 311.814 685.087 310.914V305.082H687.121V310.608C687.121 311.496 687.343 312.18 687.787 312.66C688.231 313.128 688.837 313.362 689.605 313.362C690.373 313.362 690.979 313.128 691.423 312.66C691.879 312.18 692.107 311.496 692.107 310.608V305.082H694.159ZM701.871 304.92C702.651 304.92 703.347 305.082 703.959 305.406C704.583 305.73 705.069 306.21 705.417 306.846C705.765 307.482 705.939 308.25 705.939 309.15V315H703.905V309.456C703.905 308.568 703.683 307.89 703.239 307.422C702.795 306.942 702.189 306.702 701.421 306.702C700.653 306.702 700.041 306.942 699.585 307.422C699.141 307.89 698.919 308.568 698.919 309.456V315H696.867V305.082H698.919V306.216C699.255 305.808 699.681 305.49 700.197 305.262C700.725 305.034 701.283 304.92 701.871 304.92ZM707.872 309.996C707.872 309 708.076 308.118 708.484 307.35C708.904 306.582 709.468 305.988 710.176 305.568C710.896 305.136 711.694 304.92 712.57 304.92C713.218 304.92 713.854 305.064 714.478 305.352C715.114 305.628 715.618 306 715.99 306.468V301.68H718.06V315H715.99V313.506C715.654 313.986 715.186 314.382 714.586 314.694C713.998 315.006 713.32 315.162 712.552 315.162C711.688 315.162 710.896 314.946 710.176 314.514C709.468 314.07 708.904 313.458 708.484 312.678C708.076 311.886 707.872 310.992 707.872 309.996ZM715.99 310.032C715.99 309.348 715.846 308.754 715.558 308.25C715.282 307.746 714.916 307.362 714.46 307.098C714.004 306.834 713.512 306.702 712.984 306.702C712.456 306.702 711.964 306.834 711.508 307.098C711.052 307.35 710.68 307.728 710.392 308.232C710.116 308.724 709.978 309.312 709.978 309.996C709.978 310.68 710.116 311.28 710.392 311.796C710.68 312.312 711.052 312.708 711.508 312.984C711.976 313.248 712.468 313.38 712.984 313.38C713.512 313.38 714.004 313.248 714.46 312.984C714.916 312.72 715.282 312.336 715.558 311.832C715.846 311.316 715.99 310.716 715.99 310.032ZM724.747 309.996C724.747 309 724.951 308.118 725.359 307.35C725.779 306.582 726.343 305.988 727.051 305.568C727.771 305.136 728.563 304.92 729.427 304.92C730.207 304.92 730.885 305.076 731.461 305.388C732.049 305.688 732.517 306.066 732.865 306.522V305.082H734.935V315H732.865V313.524C732.517 313.992 732.043 314.382 731.443 314.694C730.843 315.006 730.159 315.162 729.391 315.162C728.539 315.162 727.759 314.946 727.051 314.514C726.343 314.07 725.779 313.458 725.359 312.678C724.951 311.886 724.747 310.992 724.747 309.996ZM732.865 310.032C732.865 309.348 732.721 308.754 732.433 308.25C732.157 307.746 731.791 307.362 731.335 307.098C730.879 306.834 730.387 306.702 729.859 306.702C729.331 306.702 728.839 306.834 728.383 307.098C727.927 307.35 727.555 307.728 727.267 308.232C726.991 308.724 726.853 309.312 726.853 309.996C726.853 310.68 726.991 311.28 727.267 311.796C727.555 312.312 727.927 312.708 728.383 312.984C728.851 313.248 729.343 313.38 729.859 313.38C730.387 313.38 730.879 313.248 731.335 312.984C731.791 312.72 732.157 312.336 732.433 311.832C732.721 311.316 732.865 310.716 732.865 310.032ZM740.024 306.756V312.246C740.024 312.618 740.108 312.888 740.276 313.056C740.456 313.212 740.756 313.29 741.176 313.29H742.436V315H740.816C739.892 315 739.184 314.784 738.692 314.352C738.2 313.92 737.954 313.218 737.954 312.246V306.756H736.784V305.082H737.954V302.616H740.024V305.082H742.436V306.756H740.024ZM751.397 306.756V312.246C751.397 312.618 751.481 312.888 751.649 313.056C751.829 313.212 752.129 313.29 752.549 313.29H753.809V315H752.189C751.265 315 750.557 314.784 750.065 314.352C749.573 313.92 749.327 313.218 749.327 312.246V306.756H748.157V305.082H749.327V302.616H751.397V305.082H753.809V306.756H751.397ZM760.831 304.92C761.587 304.92 762.259 305.082 762.847 305.406C763.447 305.73 763.915 306.21 764.251 306.846C764.599 307.482 764.773 308.25 764.773 309.15V315H762.739V309.456C762.739 308.568 762.517 307.89 762.073 307.422C761.629 306.942 761.023 306.702 760.255 306.702C759.487 306.702 758.875 306.942 758.419 307.422C757.975 307.89 757.753 308.568 757.753 309.456V315H755.701V301.68H757.753V306.234C758.101 305.814 758.539 305.49 759.067 305.262C759.607 305.034 760.195 304.92 760.831 304.92ZM768.434 303.768C768.062 303.768 767.75 303.642 767.498 303.39C767.246 303.138 767.12 302.826 767.12 302.454C767.12 302.082 767.246 301.77 767.498 301.518C767.75 301.266 768.062 301.14 768.434 301.14C768.794 301.14 769.1 301.266 769.352 301.518C769.604 301.77 769.73 302.082 769.73 302.454C769.73 302.826 769.604 303.138 769.352 303.39C769.1 303.642 768.794 303.768 768.434 303.768ZM769.442 305.082V315H767.39V305.082H769.442ZM775.736 315.162C774.956 315.162 774.254 315.024 773.63 314.748C773.018 314.46 772.532 314.076 772.172 313.596C771.812 313.104 771.62 312.558 771.596 311.958H773.72C773.756 312.378 773.954 312.732 774.314 313.02C774.686 313.296 775.148 313.434 775.7 313.434C776.276 313.434 776.72 313.326 777.032 313.11C777.356 312.882 777.518 312.594 777.518 312.246C777.518 311.874 777.338 311.598 776.978 311.418C776.63 311.238 776.072 311.04 775.304 310.824C774.56 310.62 773.954 310.422 773.486 310.23C773.018 310.038 772.61 309.744 772.262 309.348C771.926 308.952 771.758 308.43 771.758 307.782C771.758 307.254 771.914 306.774 772.226 306.342C772.538 305.898 772.982 305.55 773.558 305.298C774.146 305.046 774.818 304.92 775.574 304.92C776.702 304.92 777.608 305.208 778.292 305.784C778.988 306.348 779.36 307.122 779.408 308.106H777.356C777.32 307.662 777.14 307.308 776.816 307.044C776.492 306.78 776.054 306.648 775.502 306.648C774.962 306.648 774.548 306.75 774.26 306.954C773.972 307.158 773.828 307.428 773.828 307.764C773.828 308.028 773.924 308.25 774.116 308.43C774.308 308.61 774.542 308.754 774.818 308.862C775.094 308.958 775.502 309.084 776.042 309.24C776.762 309.432 777.35 309.63 777.806 309.834C778.274 310.026 778.676 310.314 779.012 310.698C779.348 311.082 779.522 311.592 779.534 312.228C779.534 312.792 779.378 313.296 779.066 313.74C778.754 314.184 778.31 314.532 777.734 314.784C777.17 315.036 776.504 315.162 775.736 315.162ZM785.743 310.032C785.743 309.012 785.947 308.118 786.355 307.35C786.775 306.57 787.351 305.97 788.083 305.55C788.815 305.13 789.655 304.92 790.603 304.92C791.803 304.92 792.793 305.208 793.573 305.784C794.365 306.348 794.899 307.158 795.175 308.214H792.961C792.781 307.722 792.493 307.338 792.097 307.062C791.701 306.786 791.203 306.648 790.603 306.648C789.763 306.648 789.091 306.948 788.587 307.548C788.095 308.136 787.849 308.964 787.849 310.032C787.849 311.1 788.095 311.934 788.587 312.534C789.091 313.134 789.763 313.434 790.603 313.434C791.791 313.434 792.577 312.912 792.961 311.868H795.175C794.887 312.876 794.347 313.68 793.555 314.28C792.763 314.868 791.779 315.162 790.603 315.162C789.655 315.162 788.815 314.952 788.083 314.532C787.351 314.1 786.775 313.5 786.355 312.732C785.947 311.952 785.743 311.052 785.743 310.032ZM801.522 315.162C800.586 315.162 799.74 314.952 798.984 314.532C798.228 314.1 797.634 313.5 797.202 312.732C796.77 311.952 796.554 311.052 796.554 310.032C796.554 309.024 796.776 308.13 797.22 307.35C797.664 306.57 798.27 305.97 799.038 305.55C799.806 305.13 800.664 304.92 801.612 304.92C802.56 304.92 803.418 305.13 804.186 305.55C804.954 305.97 805.56 306.57 806.004 307.35C806.448 308.13 806.67 309.024 806.67 310.032C806.67 311.04 806.442 311.934 805.986 312.714C805.53 313.494 804.906 314.1 804.114 314.532C803.334 314.952 802.47 315.162 801.522 315.162ZM801.522 313.38C802.05 313.38 802.542 313.254 802.998 313.002C803.466 312.75 803.844 312.372 804.132 311.868C804.42 311.364 804.564 310.752 804.564 310.032C804.564 309.312 804.426 308.706 804.15 308.214C803.874 307.71 803.508 307.332 803.052 307.08C802.596 306.828 802.104 306.702 801.576 306.702C801.048 306.702 800.556 306.828 800.1 307.08C799.656 307.332 799.302 307.71 799.038 308.214C798.774 308.706 798.642 309.312 798.642 310.032C798.642 311.1 798.912 311.928 799.452 312.516C800.004 313.092 800.694 313.38 801.522 313.38ZM812.299 315.162C811.519 315.162 810.817 315.024 810.193 314.748C809.581 314.46 809.095 314.076 808.735 313.596C808.375 313.104 808.183 312.558 808.159 311.958H810.283C810.319 312.378 810.517 312.732 810.877 313.02C811.249 313.296 811.711 313.434 812.263 313.434C812.839 313.434 813.283 313.326 813.595 313.11C813.919 312.882 814.081 312.594 814.081 312.246C814.081 311.874 813.901 311.598 813.541 311.418C813.193 311.238 812.635 311.04 811.867 310.824C811.123 310.62 810.517 310.422 810.049 310.23C809.581 310.038 809.173 309.744 808.825 309.348C808.489 308.952 808.321 308.43 808.321 307.782C808.321 307.254 808.477 306.774 808.789 306.342C809.101 305.898 809.545 305.55 810.121 305.298C810.709 305.046 811.381 304.92 812.137 304.92C813.265 304.92 814.171 305.208 814.855 305.784C815.551 306.348 815.923 307.122 815.971 308.106H813.919C813.883 307.662 813.703 307.308 813.379 307.044C813.055 306.78 812.617 306.648 812.065 306.648C811.525 306.648 811.111 306.75 810.823 306.954C810.535 307.158 810.391 307.428 810.391 307.764C810.391 308.028 810.487 308.25 810.679 308.43C810.871 308.61 811.105 308.754 811.381 308.862C811.657 308.958 812.065 309.084 812.605 309.24C813.325 309.432 813.913 309.63 814.369 309.834C814.837 310.026 815.239 310.314 815.575 310.698C815.911 311.082 816.085 311.592 816.097 312.228C816.097 312.792 815.941 313.296 815.629 313.74C815.317 314.184 814.873 314.532 814.297 314.784C813.733 315.036 813.067 315.162 812.299 315.162ZM830.32 304.92C831.1 304.92 831.796 305.082 832.408 305.406C833.032 305.73 833.518 306.21 833.866 306.846C834.226 307.482 834.406 308.25 834.406 309.15V315H832.372V309.456C832.372 308.568 832.15 307.89 831.706 307.422C831.262 306.942 830.656 306.702 829.888 306.702C829.12 306.702 828.508 306.942 828.052 307.422C827.608 307.89 827.386 308.568 827.386 309.456V315H825.352V309.456C825.352 308.568 825.13 307.89 824.686 307.422C824.242 306.942 823.636 306.702 822.868 306.702C822.1 306.702 821.488 306.942 821.032 307.422C820.588 307.89 820.366 308.568 820.366 309.456V315H818.314V305.082H820.366V306.216C820.702 305.808 821.128 305.49 821.644 305.262C822.16 305.034 822.712 304.92 823.3 304.92C824.092 304.92 824.8 305.088 825.424 305.424C826.048 305.76 826.528 306.246 826.864 306.882C827.164 306.282 827.632 305.808 828.268 305.46C828.904 305.1 829.588 304.92 830.32 304.92ZM846.107 309.798C846.107 310.17 846.083 310.506 846.035 310.806H838.457C838.517 311.598 838.811 312.234 839.339 312.714C839.867 313.194 840.515 313.434 841.283 313.434C842.387 313.434 843.167 312.972 843.623 312.048H845.837C845.537 312.96 844.991 313.71 844.199 314.298C843.419 314.874 842.447 315.162 841.283 315.162C840.335 315.162 839.483 314.952 838.727 314.532C837.983 314.1 837.395 313.5 836.963 312.732C836.543 311.952 836.333 311.052 836.333 310.032C836.333 309.012 836.537 308.118 836.945 307.35C837.365 306.57 837.947 305.97 838.691 305.55C839.447 305.13 840.311 304.92 841.283 304.92C842.219 304.92 843.053 305.124 843.785 305.532C844.517 305.94 845.087 306.516 845.495 307.26C845.903 307.992 846.107 308.838 846.107 309.798ZM843.965 309.15C843.953 308.394 843.683 307.788 843.155 307.332C842.627 306.876 841.973 306.648 841.193 306.648C840.485 306.648 839.879 306.876 839.375 307.332C838.871 307.776 838.571 308.382 838.475 309.15H843.965ZM850.52 306.756V312.246C850.52 312.618 850.604 312.888 850.772 313.056C850.952 313.212 851.252 313.29 851.672 313.29H852.932V315H851.312C850.388 315 849.68 314.784 849.188 314.352C848.696 313.92 848.45 313.218 848.45 312.246V306.756H847.28V305.082H848.45V302.616H850.52V305.082H852.932V306.756H850.52ZM855.868 303.768C855.496 303.768 855.184 303.642 854.932 303.39C854.68 303.138 854.554 302.826 854.554 302.454C854.554 302.082 854.68 301.77 854.932 301.518C855.184 301.266 855.496 301.14 855.868 301.14C856.228 301.14 856.534 301.266 856.786 301.518C857.038 301.77 857.164 302.082 857.164 302.454C857.164 302.826 857.038 303.138 856.786 303.39C856.534 303.642 856.228 303.768 855.868 303.768ZM856.876 305.082V315H854.824V305.082H856.876ZM858.886 310.032C858.886 309.012 859.09 308.118 859.498 307.35C859.918 306.57 860.494 305.97 861.226 305.55C861.958 305.13 862.798 304.92 863.746 304.92C864.946 304.92 865.936 305.208 866.716 305.784C867.508 306.348 868.042 307.158 868.318 308.214H866.104C865.924 307.722 865.636 307.338 865.24 307.062C864.844 306.786 864.346 306.648 863.746 306.648C862.906 306.648 862.234 306.948 861.73 307.548C861.238 308.136 860.992 308.964 860.992 310.032C860.992 311.1 861.238 311.934 861.73 312.534C862.234 313.134 862.906 313.434 863.746 313.434C864.934 313.434 865.72 312.912 866.104 311.868H868.318C868.03 312.876 867.49 313.68 866.698 314.28C865.906 314.868 864.922 315.162 863.746 315.162C862.798 315.162 861.958 314.952 861.226 314.532C860.494 314.1 859.918 313.5 859.498 312.732C859.09 311.952 858.886 311.052 858.886 310.032ZM873.963 315.162C873.183 315.162 872.481 315.024 871.857 314.748C871.245 314.46 870.759 314.076 870.399 313.596C870.039 313.104 869.847 312.558 869.823 311.958H871.947C871.983 312.378 872.181 312.732 872.541 313.02C872.913 313.296 873.375 313.434 873.927 313.434C874.503 313.434 874.947 313.326 875.259 313.11C875.583 312.882 875.745 312.594 875.745 312.246C875.745 311.874 875.565 311.598 875.205 311.418C874.857 311.238 874.299 311.04 873.531 310.824C872.787 310.62 872.181 310.422 871.713 310.23C871.245 310.038 870.837 309.744 870.489 309.348C870.153 308.952 869.985 308.43 869.985 307.782C869.985 307.254 870.141 306.774 870.453 306.342C870.765 305.898 871.209 305.55 871.785 305.298C872.373 305.046 873.045 304.92 873.801 304.92C874.929 304.92 875.835 305.208 876.519 305.784C877.215 306.348 877.587 307.122 877.635 308.106H875.583C875.547 307.662 875.367 307.308 875.043 307.044C874.719 306.78 874.281 306.648 873.729 306.648C873.189 306.648 872.775 306.75 872.487 306.954C872.199 307.158 872.055 307.428 872.055 307.764C872.055 308.028 872.151 308.25 872.343 308.43C872.535 308.61 872.769 308.754 873.045 308.862C873.321 308.958 873.729 309.084 874.269 309.24C874.989 309.432 875.577 309.63 876.033 309.834C876.501 310.026 876.903 310.314 877.239 310.698C877.575 311.082 877.749 311.592 877.761 312.228C877.761 312.792 877.605 313.296 877.293 313.74C876.981 314.184 876.537 314.532 875.961 314.784C875.397 315.036 874.731 315.162 873.963 315.162ZM743.762 331.92C744.518 331.92 745.19 332.082 745.778 332.406C746.378 332.73 746.846 333.21 747.182 333.846C747.53 334.482 747.704 335.25 747.704 336.15V342H745.67V336.456C745.67 335.568 745.448 334.89 745.004 334.422C744.56 333.942 743.954 333.702 743.186 333.702C742.418 333.702 741.806 333.942 741.35 334.422C740.906 334.89 740.684 335.568 740.684 336.456V342H738.632V328.68H740.684V333.234C741.032 332.814 741.47 332.49 741.998 332.262C742.538 332.034 743.126 331.92 743.762 331.92ZM749.638 336.996C749.638 336 749.842 335.118 750.25 334.35C750.67 333.582 751.234 332.988 751.942 332.568C752.662 332.136 753.454 331.92 754.318 331.92C755.098 331.92 755.776 332.076 756.352 332.388C756.94 332.688 757.408 333.066 757.756 333.522V332.082H759.826V342H757.756V340.524C757.408 340.992 756.934 341.382 756.334 341.694C755.734 342.006 755.05 342.162 754.282 342.162C753.43 342.162 752.65 341.946 751.942 341.514C751.234 341.07 750.67 340.458 750.25 339.678C749.842 338.886 749.638 337.992 749.638 336.996ZM757.756 337.032C757.756 336.348 757.612 335.754 757.324 335.25C757.048 334.746 756.682 334.362 756.226 334.098C755.77 333.834 755.278 333.702 754.75 333.702C754.222 333.702 753.73 333.834 753.274 334.098C752.818 334.35 752.446 334.728 752.158 335.232C751.882 335.724 751.744 336.312 751.744 336.996C751.744 337.68 751.882 338.28 752.158 338.796C752.446 339.312 752.818 339.708 753.274 339.984C753.742 340.248 754.234 340.38 754.75 340.38C755.278 340.38 755.77 340.248 756.226 339.984C756.682 339.72 757.048 339.336 757.324 338.832C757.612 338.316 757.756 337.716 757.756 337.032ZM766.355 340.164L769.163 332.082H771.341L767.561 342H765.113L761.351 332.082H763.547L766.355 340.164ZM781.982 336.798C781.982 337.17 781.958 337.506 781.91 337.806H774.332C774.392 338.598 774.686 339.234 775.214 339.714C775.742 340.194 776.39 340.434 777.158 340.434C778.262 340.434 779.042 339.972 779.498 339.048H781.712C781.412 339.96 780.866 340.71 780.074 341.298C779.294 341.874 778.322 342.162 777.158 342.162C776.21 342.162 775.358 341.952 774.602 341.532C773.858 341.1 773.27 340.5 772.838 339.732C772.418 338.952 772.208 338.052 772.208 337.032C772.208 336.012 772.412 335.118 772.82 334.35C773.24 333.57 773.822 332.97 774.566 332.55C775.322 332.13 776.186 331.92 777.158 331.92C778.094 331.92 778.928 332.124 779.66 332.532C780.392 332.94 780.962 333.516 781.37 334.26C781.778 334.992 781.982 335.838 781.982 336.798ZM779.84 336.15C779.828 335.394 779.558 334.788 779.03 334.332C778.502 333.876 777.848 333.648 777.068 333.648C776.36 333.648 775.754 333.876 775.25 334.332C774.746 334.776 774.446 335.382 774.35 336.15H779.84ZM789.005 331.92C789.785 331.92 790.481 332.082 791.093 332.406C791.717 332.73 792.203 333.21 792.551 333.846C792.899 334.482 793.073 335.25 793.073 336.15V342H791.039V336.456C791.039 335.568 790.817 334.89 790.373 334.422C789.929 333.942 789.323 333.702 788.555 333.702C787.787 333.702 787.175 333.942 786.719 334.422C786.275 334.89 786.053 335.568 786.053 336.456V342H784.001V332.082H786.053V333.216C786.389 332.808 786.815 332.49 787.331 332.262C787.859 332.034 788.417 331.92 789.005 331.92ZM798.265 329.49L798.031 338.22H796.321L796.087 329.49H798.265ZM797.239 342.126C796.867 342.126 796.555 342 796.303 341.748C796.051 341.496 795.925 341.184 795.925 340.812C795.925 340.44 796.051 340.128 796.303 339.876C796.555 339.624 796.867 339.498 797.239 339.498C797.599 339.498 797.905 339.624 798.157 339.876C798.409 340.128 798.535 340.44 798.535 340.812C798.535 341.184 798.409 341.496 798.157 341.748C797.905 342 797.599 342.126 797.239 342.126ZM801.798 329.49H804.03L802.14 333.774H800.7L801.798 329.49ZM805.038 329.49H807.27L805.38 333.774H803.94L805.038 329.49Z" fill="white"/>
<path d="M504 98.1596C516.729 96.9255 553.001 92.9863 558.95 111.595C561.425 119.339 560.437 131.37 555.3 138.156C544.268 152.73 517.261 144.466 532.932 126.113C541.72 115.82 558.722 117.703 570.743 119.202C588.462 121.412 599.472 132.063 610.145 145.362C615.565 152.116 633.476 188.928 630.878 188.396" stroke="#283618" stroke-width="2" stroke-linecap="round"/>
<path d="M639.242 201.063C636.588 200.423 616.429 194.865 618.8 195.865C621.903 197.175 625.24 198.204 628.161 199.891C631.616 201.886 635.522 202.979 638.731 205.341C641.548 207.413 640.985 189.025 640.151 185.911" stroke="#283618" stroke-width="2" stroke-linecap="round"/>
</g>
<defs>
<clipPath id="clip0_16_5">
<rect width="1080" height="441" fill="white"/>
</clipPath>
</defs>
</svg>
